<?xml version="1.0" encoding="UTF-8" standalone="no"?>
<svg
   xmlns:dc="http://purl.org/dc/elements/1.1/"
   xmlns:cc="http://creativecommons.org/ns#"
   xmlns:rdf="http://www.w3.org/1999/02/22-rdf-syntax-ns#"
   xmlns:svg="http://www.w3.org/2000/svg"
   xmlns="http://www.w3.org/2000/svg"
   xmlns:sodipodi="http://sodipodi.sourceforge.net/DTD/sodipodi-0.dtd"
   xmlns:inkscape="http://www.inkscape.org/namespaces/inkscape"
   inkscape:version="1.0 (4035a4fb49, 2020-05-01)"
   sodipodi:docname="booking.svg"
   version="1.1"
   viewBox="0 0 1128.33 786.75"
   height="786.75"
   width="1128.33"
   data-name="Layer 1"
   id="a50fd755-b70f-4e5f-b336-9e50a578b62c">
  <metadata
     id="metadata198">
    <rdf:RDF>
      <cc:Work
         rdf:about="">
        <dc:format>image/svg+xml</dc:format>
        <dc:type
           rdf:resource="http://purl.org/dc/dcmitype/StillImage" />
      </cc:Work>
    </rdf:RDF>
  </metadata>
  <sodipodi:namedview
     inkscape:current-layer="a50fd755-b70f-4e5f-b336-9e50a578b62c"
     inkscape:window-maximized="1"
     inkscape:window-y="-9"
     inkscape:window-x="-9"
     inkscape:cy="675.71383"
     inkscape:cx="947.91687"
     inkscape:zoom="0.5274865"
     showgrid="false"
     id="namedview196"
     inkscape:window-height="1001"
     inkscape:window-width="1920"
     inkscape:pageshadow="2"
     inkscape:pageopacity="0"
     guidetolerance="10"
     gridtolerance="10"
     objecttolerance="10"
     borderopacity="1"
     bordercolor="#666666"
     pagecolor="#ffffff" />
  <defs
     id="defs9">
    <linearGradient
       gradientUnits="userSpaceOnUse"
       y2="398.88"
       x2="874.32"
       y1="843.37"
       x1="874.32"
       id="be48829d-c862-4d39-810b-ff1fea1d92ea">
      <stop
         id="stop2"
         stop-opacity="0.25"
         stop-color="gray"
         offset="0" />
      <stop
         id="stop4"
         stop-opacity="0.12"
         stop-color="gray"
         offset="0.54" />
      <stop
         id="stop6"
         stop-opacity="0.1"
         stop-color="gray"
         offset="1" />
    </linearGradient>
  </defs>
  <title
     id="title11">booking</title>
  <path
     id="path13"
     opacity="0.1"
     fill="#6c63ff"
     transform="translate(-35.84 -56.63)"
     d="M691.54,181.1c-72.31-2.51-141.18-25.86-206.95-51.4S353.68,75.86,283.09,62.33c-45.39-8.71-97.31-9.94-133.89,14.4C114,100.15,102.63,140.58,96.51,178.1c-4.6,28.23-7.3,57.93,5.3,84.36,8.75,18.34,24.29,33.76,35,51.33,37.39,61.15,11,136.54-29.56,196.25-19,28-41.06,54.72-55.72,84.53S30.11,658.54,43,689c12.72,30.14,43,52.78,75.87,68.71C185.51,790,264.1,799.26,340.73,804.5c169.64,11.6,340.19,6.58,510.28,1.55,62.94-1.87,126.17-3.75,188.09-13.49,34.39-5.4,69.89-14,94.86-34.69,31.69-26.29,39.55-70.81,18.31-103.78-35.62-55.3-134.11-69-159-128.38-13.71-32.66.37-69.05,20.29-99.34,42.72-65,114.33-122,118.1-196.29,2.6-51-31.83-102.12-85.06-126.26-55.8-25.3-133.16-22.12-174.33,19.77C829.88,166.72,755.39,183.31,691.54,181.1Z" />
  <path
     id="path15"
     fill="#6c63ff"
     transform="translate(-35.84 -56.63)"
     d="M938.48,738.54a30.82,30.82,0,0,0-12.59-1.34c-5.17.56-4.44,8.43.75,8.06a37.18,37.18,0,0,0,7.66-1.41Z" />
  <path
     id="path17"
     fill="#6c63ff"
     transform="translate(-35.84 -56.63)"
     d="M940.05,738.61a30.77,30.77,0,0,1,3.08,12.29c.17,5.2-7.73,5.57-8.09.38a37.63,37.63,0,0,1,.34-7.78Z" />
  <path
     id="path19"
     fill="#6c63ff"
     transform="translate(-35.84 -56.63)"
     d="M951.81,721.77s-2.53-7.94-18-4.86c-7,1.39-6.81,11.43.2,12.49l.3,0C944.52,730.82,948.07,726.77,951.81,721.77Z" />
  <path
     id="path21"
     fill="#6c63ff"
     transform="translate(-35.84 -56.63)"
     d="M953.42,721.3s8.31.65,8.83,16.4c.24,7.09-9.57,9.24-12.2,2.66,0-.1-.07-.19-.11-.29C946.27,730.46,949.4,726.08,953.42,721.3Z" />
  <path
     id="path23"
     fill="#6c63ff"
     transform="translate(-35.84 -56.63)"
     d="M964.52,701a16.53,16.53,0,0,0-11.16-12.46c-10.47-3.3-16,12.36-5.77,16.34a32.68,32.68,0,0,0,13.24,1.92Z" />
  <path
     id="path25"
     fill="#6c63ff"
     transform="translate(-35.84 -56.63)"
     d="M977.29,674.85s-4.23-10-15.2-12c-11.63-2.13-15.15,15.34-3.66,18.13a38.35,38.35,0,0,0,15.66.13Z" />
  <path
     id="path27"
     fill="#6c63ff"
     transform="translate(-35.84 -56.63)"
     d="M985,649.1a24.82,24.82,0,0,0-16-11c-10-1.88-13.37,13.09-3.55,15.65a37.34,37.34,0,0,0,18.74-.26Z" />
  <path
     id="path29"
     fill="#6c63ff"
     transform="translate(-35.84 -56.63)"
     d="M992.27,624a25.81,25.81,0,0,0-14-11.13c-10-3.07-14.94,12.09-5,15.39a28.47,28.47,0,0,0,18.14-.07Z" />
  <path
     id="path31"
     fill="#6c63ff"
     transform="translate(-35.84 -56.63)"
     d="M995.33,601.13s-4-9.38-12.15-14.34c-9.08-5.53-17.73,8-9,14.09,5.38,3.77,12.27,6.37,20.32,4.63Z" />
  <path
     id="path33"
     fill="#6c63ff"
     transform="translate(-35.84 -56.63)"
     d="M996.84,574s-4.41-9.47-12.87-14c-9.46-5-17.69,8.82-8.78,14.78,5.83,3.89,13.11,6.41,20.84,3.37Z" />
  <path
     id="path35"
     fill="#6c63ff"
     transform="translate(-35.84 -56.63)"
     d="M995.9,549.26a61.35,61.35,0,0,0-12-13.65c-6.62-5.41-15,4.33-8.73,10.11,5.79,5.31,13,9.77,20.45,9.41Z" />
  <path
     id="path37"
     fill="#6c63ff"
     transform="translate(-35.84 -56.63)"
     d="M993.39,525.52A89.9,89.9,0,0,0,979.83,508c-5.18-5-12.84,2.62-8,7.89,5.59,6,13.13,12.22,22.19,14.94Z" />
  <path
     id="path39"
     fill="#6c63ff"
     transform="translate(-35.84 -56.63)"
     d="M988.54,497.6a80.15,80.15,0,0,0-10.83-13.41c-5.22-5.11-13.09,2.58-8.08,7.89,5.32,5.65,12.2,10.94,20.27,12.74Z" />
  <path
     id="path41"
     fill="#6c63ff"
     transform="translate(-35.84 -56.63)"
     d="M984.3,471.55a127.83,127.83,0,0,0-10.41-12.37c-4.18-4.31-10.86,1.75-6.92,6.29,4.63,5.34,10.57,10.07,17.4,10.83Z" />
  <path
     id="path43"
     fill="#6c63ff"
     transform="translate(-35.84 -56.63)"
     d="M979.9,447.39a130.3,130.3,0,0,0-10-16.45c-3.13-4.28-9.65.3-6.7,4.7,3.86,5.77,9.22,11.48,16.26,14.23Z" />
  <path
     id="path45"
     fill="#6c63ff"
     transform="translate(-35.84 -56.63)"
     d="M976.27,415.28s-2.47-4.19-6-9.06c-3.26-4.49-10.14.15-7.12,4.8,3.4,5.21,7.66,9.65,12.62,10.53Z" />
  <path
     id="path47"
     fill="#6c63ff"
     transform="translate(-35.84 -56.63)"
     d="M974.54,394l-3.13-15.65c-.83-4.14-7-3.15-6.5,1,1.12,8.36,4,16.77,10.27,22.29Z" />
  <path
     id="path49"
     fill="#6c63ff"
     transform="translate(-35.84 -56.63)"
     d="M976.4,349.52h0a3.07,3.07,0,0,0-5.86,1.68A79.23,79.23,0,0,0,973.7,364Z" />
  <path
     id="path51"
     fill="#6c63ff"
     transform="translate(-35.84 -56.63)"
     d="M965.22,700.69a16.53,16.53,0,0,1,16.36,3.52c8,7.47-2.82,20-11.35,13.11A32.86,32.86,0,0,1,962,706.77Z" />
  <path
     id="path53"
     fill="#6c63ff"
     transform="translate(-35.84 -56.63)"
     d="M978,673.9s10.52-2.54,18.66,5.08c8.63,8.08-3.3,21.31-12.39,13.74a38.29,38.29,0,0,1-9.43-12.51Z" />
  <path
     id="path55"
     fill="#6c63ff"
     transform="translate(-35.84 -56.63)"
     d="M985.69,650.86a24.83,24.83,0,0,1,19-4.22c10,2,7.51,17.13-2.56,15.84a37.41,37.41,0,0,1-17.28-7.25Z" />
  <path
     id="path57"
     fill="#6c63ff"
     transform="translate(-35.84 -56.63)"
     d="M992.77,624.14a25.78,25.78,0,0,1,17.12-5.11c10.46.91,9.34,16.8-1.13,16.14a28.41,28.41,0,0,1-16.8-6.85Z" />
  <path
     id="path59"
     fill="#6c63ff"
     transform="translate(-35.84 -56.63)"
     d="M995.2,601.78s5.55-8.56,14.41-12.06c9.83-3.89,16.14,10.84,6.59,15.37-6,2.83-13.23,4.26-20.91,1.15Z" />
  <path
     id="path61"
     fill="#6c63ff"
     transform="translate(-35.84 -56.63)"
     d="M995.55,573.59s5.61-8.8,14.58-12.16c10-3.75,16.39,11.05,6.78,15.8-6.29,3.1-13.84,4.64-21.1.62Z" />
  <path
     id="path63"
     fill="#6c63ff"
     transform="translate(-35.84 -56.63)"
     d="M993.67,549a61.32,61.32,0,0,1,8.8-15.9c5.3-6.71,15.61,1,10.69,8-4.52,6.43-10.56,12.32-18,13.57Z" />
  <path
     id="path65"
     fill="#6c63ff"
     transform="translate(-35.84 -56.63)"
     d="M992.9,525.48a89.53,89.53,0,0,1,8.12-20.66c3.59-6.22,13.06-1.07,9.84,5.35-3.68,7.35-9.2,15.4-17.14,20.55Z" />
  <path
     id="path67"
     fill="#6c63ff"
     transform="translate(-35.84 -56.63)"
     d="M987.1,496.3a80.22,80.22,0,0,1,8.26-15.77c4.12-6,13.25-.12,9.48,6.08-4.1,6.76-9.88,13.56-17.63,17Z" />
  <path
     id="path69"
     fill="#6c63ff"
     transform="translate(-35.84 -56.63)"
     d="M982.48,471.41a128.51,128.51,0,0,1,4.33-15.57c2-5.67,10.61-2.93,8.91,2.84-2,6.78-5.43,13.55-11.32,17.08Z" />
  <path
     id="path71"
     fill="#6c63ff"
     transform="translate(-35.84 -56.63)"
     d="M979.27,446.92a129.85,129.85,0,0,1,6-18.31c2.08-4.88,9.48-1.91,7.6,3.05-2.44,6.5-6.36,13.28-12.58,17.56Z" />
  <path
     id="path73"
     fill="#6c63ff"
     transform="translate(-35.84 -56.63)"
     d="M974.46,417.48s.94-4.77,2.65-10.54c1.58-5.32,9.62-3.23,8.31,2.16-1.46,6-4,11.65-8.4,14.13Z" />
  <path
     id="path75"
     fill="#6c63ff"
     transform="translate(-35.84 -56.63)"
     d="M975.58,392.94l5.44-15c1.44-4,7.44-2.06,6.27,2-2.35,8.1-6.43,16-13.48,20.5Z" />
  <path
     id="path77"
     fill="#6c63ff"
     transform="translate(-35.84 -56.63)"
     d="M982.36,351.09s.85-.68,2.15-1.75c2.65-2.2,6.11,1.64,3.61,4a51,51,0,0,1-14.79,9.38Z" />
  <path
     id="path79"
     fill="#6c63ff"
     transform="translate(-35.84 -56.63)"
     d="M982,342.4a197,197,0,0,1,10.85-19.32,2,2,0,0,0-3.24-2.29c-3.2,4.38-6.34,10.79-8.72,20.21Z" />
  <path
     id="path81"
     fill="#444053"
     transform="translate(-35.84 -56.63)"
     d="M975.8,421.8l1.16-.12c-5-46.61-2.89-75.35,5.85-80.92l-.63-1C972.92,345.69,970.72,374.05,975.8,421.8Z" />
  <path
     id="path83"
     fill="#444053"
     transform="translate(-35.84 -56.63)"
     d="M993,532l1.73-.26c-.65-4.31-1.4-8.69-2.24-13-7.28-37.83-12.94-72.8-15.77-99.36l-1.27-1c2.84,26.61,8,62.79,15.33,100.67C991.6,523.33,992.35,527.7,993,532Z" />
  <path
     id="path85"
     fill="#444053"
     transform="translate(-35.84 -56.63)"
     d="M912,767.58c.26-.21,26.9-20.59,50.29-59.68a252,252,0,0,0,29.6-73.79c7.39-32.51,7.6-70.37,2.27-105.83l-1.56,1.25c12,79.58-10.89,141.37-32.25,177.09-23.16,38.73-49.49,58.9-49.76,59.1Z" />
  <ellipse
     id="ellipse87"
     fill="#6c63ff"
     ry="12.8"
     rx="66.55"
     cy="697.97"
     cx="194.02" />
  <ellipse
     id="ellipse89"
     fill="#3f3d56"
     ry="10.14"
     rx="7.75"
     cy="692.53"
     cx="192.9" />
  <ellipse
     id="ellipse91"
     fill="#3f3d56"
     ry="10.14"
     rx="7.75"
     cy="680.13"
     cx="192.9" />
  <ellipse
     id="ellipse93"
     fill="#3f3d56"
     ry="10.14"
     rx="7.75"
     cy="667.74"
     cx="192.9" />
  <ellipse
     id="ellipse95"
     fill="#3f3d56"
     ry="10.14"
     rx="7.75"
     cy="655.34"
     cx="192.9" />
  <ellipse
     id="ellipse97"
     fill="#3f3d56"
     ry="10.14"
     rx="7.75"
     cy="642.94"
     cx="192.9" />
  <ellipse
     id="ellipse99"
     fill="#3f3d56"
     ry="10.14"
     rx="7.75"
     cy="630.55"
     cx="192.9" />
  <ellipse
     id="ellipse101"
     fill="#3f3d56"
     ry="10.14"
     rx="7.75"
     cy="618.15"
     cx="192.9" />
  <path
     id="path103"
     fill="#6c63ff"
     transform="translate(-35.84 -56.63)"
     d="M257.74,589.94a36.51,36.51,0,0,0,2.89-4.25l-20.36-3.34,22,.16a37.14,37.14,0,0,0,.71-29.4l-29.54,15.32,27.24-20a37.12,37.12,0,1,0-61.3,41.53,37.49,37.49,0,0,0-4.23,6.77l26.43,13.73L193.42,601a37.13,37.13,0,0,0,6,34.85,37.12,37.12,0,1,0,58.34,0,37.09,37.09,0,0,0,0-45.89Z" />
  <path
     id="path105"
     opacity="0.1"
     transform="translate(-35.84 -56.63)"
     d="M191.46,612.89a37,37,0,0,0,7.94,22.94,37.12,37.12,0,1,0,58.34,0C262.72,629.52,191.46,608.72,191.46,612.89Z" />
  <path
     id="path107"
     fill="#fff"
     transform="translate(-35.84 -56.63)"
     d="M267.81,317.87V759.58A15.42,15.42,0,0,0,283.23,775H917.1a15.42,15.42,0,0,0,15.42-15.42V317.87Z" />
  <rect
     id="rect109"
     opacity="0.1"
     rx="8.65"
     height="93.27"
     width="158.9"
     y="300.78"
     x="284.57" />
  <rect
     id="rect111"
     opacity="0.1"
     rx="8.65"
     height="93.27"
     width="158.9"
     y="300.78"
     x="484.88" />
  <rect
     style="fill:#162d50;fill-opacity:1"
     id="rect113"
     fill="#6c63ff"
     rx="8.65"
     height="90.64"
     width="154.43"
     y="302.09"
     x="286.8" />
  <rect
     id="rect115"
     opacity="0.1"
     fill="#444053"
     transform="translate(1565.11 751.45) rotate(-180)"
     rx="8.65"
     height="90.64"
     width="154.43"
     y="358.72"
     x="723.26" />
  <rect
     style="fill:#162d50;fill-opacity:1"
     id="rect117"
     fill="#6c63ff"
     transform="translate(1164.49 751.45) rotate(-180)"
     rx="8.65"
     height="90.64"
     width="154.43"
     y="358.72"
     x="522.95" />
  <rect
     id="rect119"
     opacity="0.1"
     fill="#444053"
     rx="8.65"
     height="90.64"
     width="154.43"
     y="433.02"
     x="286.8" />
  <rect
     id="rect121"
     opacity="0.1"
     fill="#444053"
     transform="translate(1565.11 1013.31) rotate(-180)"
     rx="8.65"
     height="90.64"
     width="154.43"
     y="489.65"
     x="723.26" />
  <rect
     id="rect123"
     opacity="0.1"
     fill="#444053"
     transform="translate(1164.49 1013.31) rotate(-180)"
     rx="8.65"
     height="90.64"
     width="154.43"
     y="489.65"
     x="522.95" />
  <rect
     id="rect125"
     opacity="0.1"
     fill="#444053"
     rx="8.65"
     height="90.64"
     width="154.43"
     y="563.95"
     x="286.8" />
  <rect
     id="rect127"
     opacity="0.1"
     fill="#444053"
     transform="translate(1565.11 1275.17) rotate(-180)"
     rx="8.65"
     height="90.64"
     width="154.43"
     y="620.57"
     x="723.26" />
  <rect
     id="rect129"
     opacity="0.1"
     fill="#444053"
     transform="translate(1164.49 1275.17) rotate(-180)"
     rx="8.65"
     height="90.64"
     width="154.43"
     y="620.57"
     x="522.95" />
  <path
     style="fill:#162d50;fill-opacity:1"
     id="path131"
     fill="#6c63ff"
     transform="translate(-35.84 -56.63)"
     d="M267.81,239.86v80.25H932.52V239.86a15.42,15.42,0,0,0-15.42-15.43H283.23A15.42,15.42,0,0,0,267.81,239.86Zm164.5,23.74a12.31,12.31,0,1,1,12.31-12.31A12.31,12.31,0,0,1,432.31,263.6Zm335.71,0a12.31,12.31,0,1,1,12.31-12.31A12.31,12.31,0,0,1,768,263.6Z" />
  <path
     id="path133"
     opacity="0.1"
     transform="translate(-35.84 -56.63)"
     d="M432.31,236.74a14.55,14.55,0,1,0,14.54,14.55A14.54,14.54,0,0,0,432.31,236.74Zm0,26.86a12.31,12.31,0,1,1,12.31-12.31A12.31,12.31,0,0,1,432.31,263.6Z" />
  <path
     id="path135"
     opacity="0.1"
     transform="translate(-35.84 -56.63)"
     d="M768,236.74a14.55,14.55,0,1,0,14.55,14.55A14.55,14.55,0,0,0,768,236.74Zm0,26.86a12.31,12.31,0,1,1,12.31-12.31A12.31,12.31,0,0,1,768,263.6Z" />
  <circle
     id="circle137"
     opacity="0.1"
     fill="#6c63ff"
     r="15.27"
     cy="419.94"
     cx="1033.1" />
  <circle
     id="circle139"
     opacity="0.1"
     fill="#6c63ff"
     r="25.6"
     cy="351.84"
     cx="1087.73" />
  <circle
     id="circle141"
     opacity="0.1"
     fill="#6c63ff"
     r="25.6"
     cy="476.06"
     cx="1053.84" />
  <circle
     id="circle143"
     opacity="0.1"
     fill="#6c63ff"
     r="36.25"
     cy="345.56"
     cx="36.25" />
  <path
     id="path145"
     fill="url(#be48829d-c862-4d39-810b-ff1fea1d92ea)"
     transform="translate(-35.84 -56.63)"
     d="M961.49,797a32,32,0,0,0-7.42-4.17,1.53,1.53,0,0,0-.65-.17,114.16,114.16,0,0,1-15.3-13.18c1-.8,1.92-1.58,2.9-2.35-6-2.86-9.33-9.41-12.57-15.32a151.14,151.14,0,0,0-33.34-41.54c-.33-1.27-2.26-1-3.29-1.82a2.64,2.64,0,0,1-.73-2.55c.16-.92.58-1.77.81-2.67.55-2.11.07-4.33-.17-6.5s-.14-4.59,1.3-6.21c.46-.53,1.05-.94,1.5-1.48a5.64,5.64,0,0,0,1-4.49,15.94,15.94,0,0,0-1-4.55q7.35-20,14.69-40.07c3.43-9.34,6.89-18.88,7.24-28.84.28-8-1.78-16.31-6.62-22.42.88-.21,1.76-.43,2.63-.68-5.72-7.58-6.34-17.62-6.49-27.17q-.12-7.14-.49-14.29c1.66.73,3.34,1.38,5.06,1.94l1.6.49a55.15,55.15,0,0,0,7.93,1.7c1.18.17,2.38.3,3.57.38h0q-2.58-6.46-5.15-12.94a17.68,17.68,0,0,1-1.6-6.07h0v-.4c0-.24,0-.48.05-.72a7.9,7.9,0,0,1,.39-1.68,7.61,7.61,0,0,1,.31-.79,14,14,0,0,1,1.28-2.25c.36-.55.76-1.08,1.16-1.62a22.11,22.11,0,0,0,3.59-5.81,11,11,0,0,0,.55-3.31,16.29,16.29,0,0,0-.3-3.4c-.14-.74-.32-1.49-.52-2.21h0c-.13-.45-.27-.9-.41-1.34l-.12-.36c-.11-.34-.22-.67-.34-1l-.12-.34c-.13-.36-.26-.71-.4-1.07l-.08-.21c-1.91-4.91-4.45-9.59-6-14.64a38.6,38.6,0,0,1-1-4.09c-.07-.35-.12-.71-.18-1.06s-.09-.6-.13-.9-.09-.7-.13-1.05l-.09-1c0-.32-.05-.64-.07-1,0-.61-.06-1.22-.07-1.83,0-.22,0-.43,0-.65,0-.46,0-.93,0-1.39,0-.25,0-.5,0-.74,0-.46.07-.92.11-1.37,0-.22,0-.44.07-.65q.1-1,.27-2h0c.1-.59.21-1.19.33-1.79a23.88,23.88,0,0,0,.56-5c0-.32,0-.65-.07-1s-.08-.54-.13-.8a2,2,0,0,1,0-.24c0-.18-.09-.36-.13-.54s-.05-.17-.08-.25-.11-.35-.17-.52-.05-.15-.08-.23-.14-.36-.22-.53l-.07-.18c-.1-.22-.21-.43-.32-.64l0,0a14.73,14.73,0,0,0-1.34-2.08h0c-3.29-4.32-8.76-7.61-11.77-12.37a27.54,27.54,0,0,1-3.37-10c-.15-.8-.28-1.6-.42-2.39s-.26-1.57-.4-2.35c-.09-.48-.18-1-.28-1.44l-.06-.31c-.08-.38-.16-.77-.25-1.15l-.06-.27c-.09-.4-.18-.8-.28-1.2l-.06-.21c-.1-.42-.21-.84-.32-1.26a.83.83,0,0,1,0-.15c-.12-.44-.25-.88-.38-1.32l0-.09c-.14-.46-.28-.91-.43-1.36l0,0c-.15-.46-.31-.93-.48-1.39h0c-.18-.47-.35-.94-.54-1.4h0a37,37,0,0,0-5.06-9c-4.58-5.88-11.66-10.1-19-9.82-3.94.15-7.72,1.53-11.43,2.9l-9.63,3.55,2.69-1.24c-2.8.25-5.66.51-8.19,1.75s-4.67,3.67-4.75,6.51c-.05,1.65.6,3.29.39,4.93-.35,2.71-2.84,4.55-4.13,6.95a8.94,8.94,0,0,0-1,4.7V442c0,.19,0,.37,0,.56a.88.88,0,0,0,0,.16l0,.32c-4-1.74-8-3.55-12-5.49-6.61-3.25-13.3-7.07-17.42-13.23-1.32-2-2.34-4.16-3.65-6.14a48.6,48.6,0,0,0-5-6l-12.27-13.28c-.94,1.77.27,3.86,1.22,5.62a24.13,24.13,0,0,1,2.27,5.86,2.78,2.78,0,0,1-.06,2.05,4,4,0,0,1-1.68,1.19,6,6,0,0,0-2.53,6.87,7.6,7.6,0,0,0,5.67,4.94,10.29,10.29,0,0,1,2.53.62c1.48.73,2.18,2.43,3.24,3.7,1.93,2.32,5,3.19,7.93,3.95,4.54,5.24,9.26,10.26,13.8,15.5,6.87,7.93,13.9,16,22.86,21.36.93.56,1.88,1.08,2.84,1.56,0,.16,0,.32-.05.48a5.42,5.42,0,0,0,.43,3.5c.8,1.27,2.45,1.65,3.92,1.91l6.78,1.21a23.16,23.16,0,0,1-.33,2.62c-.09.53-.2,1.05-.3,1.58h0l-.12.68s0,.07,0,.1,0,.36-.07.55,0,.13,0,.19l0,.48v.2c0,.21,0,.43,0,.65.23,2.66,2,4.86,3.77,6.89l.95,1.15a16,16,0,0,0-3.09,6.48,22,22,0,0,0-.44,4.51,7.83,7.83,0,0,0-2,3.12,14.26,14.26,0,0,0-.52,5.05v.12c0,.63,0,1.25,0,1.88a16.8,16.8,0,0,0,1.16,7c.09.18.19.34.28.51-1.5,2.94-4,5.23-5.79,8a17.36,17.36,0,0,0,1.59,19.88c1.37,1.58,3.13,3.1,3.29,5.2a19.51,19.51,0,0,1-.28,2.84c-.16,2.26.88,4.4,1.44,6.59.47,1.82.49,4-.55,5.46a8,8,0,0,0-1.37,5.24c.51,2.83-.66,5.66-.86,8.53-.09,1.23,0,2.48-.11,3.71a20.91,20.91,0,0,1-.73,3.48c0,.12-.06.25-.1.38-2.47,1.09-4.92,2.22-7.28,3.53a6.39,6.39,0,0,0-3,2.76,7.08,7.08,0,0,0-.16,3.8l2.13,14.82-.37-.16q.25,3.64.52,7.31c.13,1.85.3,3.81,1.4,5.29a13.78,13.78,0,0,1,1.51,1.93c.84,1.7-.16,3.68-.9,5.42s-1,4.21.63,5.15a13.29,13.29,0,0,0,2.73,1.46c-2,8.34-.16,17.08,1.7,25.45q2.13,9.6,4.27,19.18a46.54,46.54,0,0,1,.94,8.24c0,.4,0,.8,0,1.2a46.16,46.16,0,0,0,2,11.22c2.22,7.48.09,16.46.79,24.61a73,73,0,0,0,2.34,11.59c4.83,19.16,9.14,37.94,10.8,57.64a14.48,14.48,0,0,0,6.92,4.83c-.2,2.42.07,5.19,0,6.6a11.4,11.4,0,0,1-.54,3.44c-.85,2.22-3,3.67-5.23,4.45-.7.24-1.41.43-2.13.6l.8-.68A17.86,17.86,0,0,0,855,824.31a5.27,5.27,0,0,0-2.63,3.1,5,5,0,0,0,.92,3.59,16.37,16.37,0,0,0,9.25,6.57,48.52,48.52,0,0,0,11.4,1.59l7.06.41a1.94,1.94,0,0,0,.46,2.51,4.94,4.94,0,0,0,2.59.94,33,33,0,0,0,8.71.13,3.41,3.41,0,0,0,2-.72,1.29,1.29,0,0,0,0-1.91,2.11,2.11,0,0,0,1.92-1.4,5.68,5.68,0,0,0,.26-2.53c-.19-3.29-.48-8.07-2.19-11a2.79,2.79,0,0,0-3.09-1.36,120,120,0,0,1-2-17.74,43.33,43.33,0,0,0,5.14-2.32c-4.91-7.93-5-18-3.5-27.22a82.46,82.46,0,0,0,1.31-8.81c.33-5.9-.56-12.58-3.83-17.46a62.47,62.47,0,0,1,15.6,14.12c6.91,9,11.12,19.9,19.59,27.4q1.67-1.63,3.38-3.24,2.68,4.54,5.07,9.27a35.26,35.26,0,0,1,2.94,7.31,33.81,33.81,0,0,1,.27,11.79q-.35,3.12-.85,6.21a16.9,16.9,0,0,1-.61,2.6,1.8,1.8,0,0,0-.19-.78c-.53-.93-2-.51-2.8.13a12.36,12.36,0,0,0-3.45,4,4.31,4.31,0,0,0-.62,2.55,3.77,3.77,0,0,0,2,2.5c3.71,2.17,8.37.6,12.35-1a14.49,14.49,0,0,0,3.12-1.57c2-1.44,3.09-3.81,5.08-5.21a29.43,29.43,0,0,0,3.07-1.94c1.85-1.69,2-4.54,3.35-6.68,2.24-3.69,7.25-4.64,9.21-8.55C967.56,805.27,964.91,799.82,961.49,797Z" />
  <path
     id="path147"
     fill="#a1616a"
     transform="translate(-35.84 -56.63)"
     d="M875.28,814.6a11.15,11.15,0,0,1-.55,3.4c-.84,2.19-3,3.62-5.22,4.39s-4.58,1-6.84,1.67a6,6,0,0,0-2.67,1.38c-2,2-.8,5.6,1.54,7.09s5.32,1.44,8.1,1.25a106.69,106.69,0,0,0,17.52-2.49c2.08-.49,4.51-1.45,4.84-3.56a5.84,5.84,0,0,0-.16-2A118.21,118.21,0,0,1,889.59,804c0-.48-11.6-.79-12.68-.09C874.49,805.5,875.41,812.14,875.28,814.6Z" />
  <path
     id="path149"
     fill="#a1616a"
     transform="translate(-35.84 -56.63)"
     d="M927,789.13q2.88,4.77,5.41,9.73a34.45,34.45,0,0,1,2.94,7.21,33.14,33.14,0,0,1,.27,11.63q-.35,3.07-.86,6.13c-.33,2-.86,4.27-2.57,5.42a5.92,5.92,0,0,0,5.1.45,14.69,14.69,0,0,0,4.49-2.75c8.57-7.07,15-17.34,15.32-28.45a4.51,4.51,0,0,0-.47-2.52,5,5,0,0,0-1.5-1.34,115.25,115.25,0,0,1-17.73-14.89,2.17,2.17,0,0,0-1.3-.83,2.25,2.25,0,0,0-1.16.33c-3.29,1.65-8.79,4-10.16,7.75A5.24,5.24,0,0,1,927,789.13Z" />
  <path
     id="path151"
     fill="#3f3d56"
     transform="translate(-35.84 -56.63)"
     d="M887,826.21c-7.2,3-15,4.08-22.79,5.11-1,.12-2.07.2-2.73-.5a2.08,2.08,0,0,1-.18-2.34,6.1,6.1,0,0,1,1.67-1.84l5.17-4.33A18,18,0,0,0,855,824.57a5.23,5.23,0,0,0-2.62,3,4.88,4.88,0,0,0,.92,3.55,16.34,16.34,0,0,0,9.24,6.48,49.4,49.4,0,0,0,11.39,1.57l7,.4a1.89,1.89,0,0,0,.47,2.48A5,5,0,0,0,884,843a33.34,33.34,0,0,0,8.7.12,3.33,3.33,0,0,0,2-.71,1.26,1.26,0,0,0,0-1.88,2.11,2.11,0,0,0,1.92-1.39,5.79,5.79,0,0,0,.26-2.49c-.19-3.24-.48-8-2.19-10.83S889.42,825.21,887,826.21Z" />
  <path
     id="path153"
     fill="#3f3d56"
     transform="translate(-35.84 -56.63)"
     d="M961.31,797.62a32.17,32.17,0,0,0-7.42-4.11.88.88,0,0,0-1.34.34,76.13,76.13,0,0,0-10.93,21.07c-1.43,4.3-2.56,8.88-5.46,12.36-.38.46-1,.93-1.52.66-.75-.38-.29-1.59-.71-2.32-.52-.92-1.94-.5-2.79.13a12,12,0,0,0-3.44,4,4,4,0,0,0-.62,2.51,3.7,3.7,0,0,0,1.95,2.46c3.71,2.15,8.37.6,12.34-1a14.12,14.12,0,0,0,3.11-1.55c2-1.41,3.09-3.76,5.08-5.13a29.27,29.27,0,0,0,3.07-1.92c1.84-1.67,2-4.48,3.34-6.6,2.24-3.63,7.25-4.57,9.21-8.43C967.37,805.78,964.73,800.4,961.31,797.62Z" />
  <path
     id="path155"
     fill="#3f3d56"
     transform="translate(-35.84 -56.63)"
     d="M905.5,597.87c7.86,5.9,11.16,16.39,10.81,26.21s-3.8,19.24-7.22,28.45q-7.35,19.77-14.68,39.53a16.3,16.3,0,0,1,1,4.5,5.53,5.53,0,0,1-1,4.42c-.46.53-1,.94-1.5,1.46-1.44,1.6-1.53,4-1.3,6.13s.72,4.33.17,6.41c-.23.89-.65,1.73-.81,2.63a2.61,2.61,0,0,0,.73,2.52c1,.8,3,.54,3.29,1.8a149.46,149.46,0,0,1,33.3,41c3.24,5.83,6.51,12.29,12.56,15.11a219.28,219.28,0,0,0-16.93,14.89c-8.45-7.4-12.66-18.17-19.56-27A62,62,0,0,0,888.78,752c3.27,4.81,4.16,11.41,3.83,17.22a79.91,79.91,0,0,1-1.31,8.69c-1.55,9.1-1.41,19,3.5,26.86-5.24,2.72-11.26,4.74-17.11,3.93a14.56,14.56,0,0,1-9.32-5.32c-1.66-19.44-6-38-10.79-56.87A69.91,69.91,0,0,1,855.25,735c-.7-8,1.43-16.9-.8-24.28a45.27,45.27,0,0,1-2-11.06c0-.4,0-.79,0-1.19a45.32,45.32,0,0,0-.94-8.12l-4.26-18.92c-1.86-8.27-3.72-16.89-1.71-25.12a13.35,13.35,0,0,1-2.72-1.43c-1.63-.93-1.37-3.36-.63-5.08s1.73-3.67.9-5.35a13.06,13.06,0,0,0-1.51-1.91c-1.1-1.46-1.27-3.39-1.4-5.21l-.52-7.22a14.13,14.13,0,0,1,7.12,6.23c-3.94-6.1-2-14.8.91-21.46a9.78,9.78,0,0,1,9.18-7.27C872.9,594.87,892.48,588.08,905.5,597.87Z" />
  <path
     id="path157"
     opacity="0.1"
     transform="translate(-35.84 -56.63)"
     d="M898.19,638.93s-7.88,5.26-7.88,9.2-2,39.4-2,39.4v25s1.31,13.14,0,16.42,0,18.39,0,20.36,2-20.36,2-20.36V705.27l2-53.86Z" />
  <path
     id="path159"
     fill="#a1616a"
     transform="translate(-35.84 -56.63)"
     d="M854.24,456.79,849.65,455c-9.38-3.76-18.77-7.53-27.85-11.94-6.6-3.21-13.29-7-17.4-13.05-1.32-2-2.34-4.1-3.65-6.07a48.42,48.42,0,0,0-5-5.93l-12.26-13.1c-.94,1.75.26,3.81,1.22,5.54a24,24,0,0,1,2.27,5.79,2.68,2.68,0,0,1-.07,2,3.89,3.89,0,0,1-1.67,1.18,5.87,5.87,0,0,0-2.53,6.77,7.55,7.55,0,0,0,5.66,4.88,10.75,10.75,0,0,1,2.53.61c1.48.73,2.18,2.4,3.24,3.65,1.93,2.29,5,3.16,7.92,3.9,4.54,5.17,9.25,10.12,13.79,15.29,6.86,7.82,13.88,15.78,22.84,21.08A33.45,33.45,0,0,0,849,479.74,167.08,167.08,0,0,1,854.24,456.79Z" />
  <path
     id="path161"
     opacity="0.15"
     transform="translate(-35.84 -56.63)"
     d="M854.24,456.79,849.65,455c-9.38-3.76-18.77-7.53-27.85-11.94-6.6-3.21-13.29-7-17.4-13.05-1.32-2-2.34-4.1-3.65-6.07a48.42,48.42,0,0,0-5-5.93l-12.26-13.1c-.94,1.75.26,3.81,1.22,5.54a24,24,0,0,1,2.27,5.79,2.68,2.68,0,0,1-.07,2,3.89,3.89,0,0,1-1.67,1.18,5.87,5.87,0,0,0-2.53,6.77,7.55,7.55,0,0,0,5.66,4.88,10.75,10.75,0,0,1,2.53.61c1.48.73,2.18,2.4,3.24,3.65,1.93,2.29,5,3.16,7.92,3.9,4.54,5.17,9.25,10.12,13.79,15.29,6.86,7.82,13.88,15.78,22.84,21.08A33.45,33.45,0,0,0,849,479.74,167.08,167.08,0,0,1,854.24,456.79Z" />
  <path
     id="path163"
     fill="#6c63ff"
     transform="translate(-35.84 -56.63)"
     d="M845.84,482.9c-1.47-.26-3.12-.62-3.92-1.88a5.27,5.27,0,0,1-.43-3.45,96.76,96.76,0,0,1,5-22.1c2.23,4.13,6.62,6.54,10.78,8.71a80,80,0,0,0,11.58,5.28c-1-.32-3.45,15.06-4.83,16-1.74,1.22-5.94-.43-7.87-.76Z" />
  <circle
     id="circle165"
     fill="#a1616a"
     r="21.02"
     cy="400.71"
     cx="820.65" />
  <path
     id="path167"
     fill="#fbbebe"
     transform="translate(-35.84 -56.63)"
     d="M852.22,474.74s13.79,11.82,7.88,19.7-9.2,13.14-1.32,13.8,34.15-13.14,34.15-13.14-24.3-19.7-20.36-31.52S852.22,474.74,852.22,474.74Z" />
  <path
     id="path169"
     fill="#6c63ff"
     transform="translate(-35.84 -56.63)"
     d="M865.45,493.24a16.31,16.31,0,0,0-12.07,12.14c-1.55,7.08,1.74,15-1.36,21.52-1.46,3.1-4.17,5.42-6,8.33a17,17,0,0,0,1.58,19.61c1.37,1.56,3.13,3.07,3.29,5.13a18.84,18.84,0,0,1-.28,2.8c-.16,2.23.88,4.35,1.44,6.51.47,1.79.49,3.94-.55,5.38a7.79,7.79,0,0,0-1.36,5.17c.5,2.8-.67,5.59-.87,8.42-.09,1.22,0,2.44-.11,3.66a21.35,21.35,0,0,1-.72,3.43l-1.76,6.49c9.54,4.08,19.68,5.55,30,5.36,9.24-.18,18.35-2.09,27.39-4,2.75-.58,5.5-1.16,8.21-1.91-5.72-7.48-6.33-17.39-6.49-26.8a400.06,400.06,0,0,0-3.51-46.9c2.77-5.23,4-11.06,5.14-16.87a28.53,28.53,0,0,0,.64-7.13c-.28-5-2.58-9.75-4.83-14.28-2.06-4.14-4.29-8.5-8.88-10.29a7.06,7.06,0,0,0-6.83.75c-3.47,2.62-2.44,7.14-3.33,11-1.17,5-5.78,8.59-10.69,10a34.75,34.75,0,0,1-11.24,1.05,2,2,0,0,1-1.42-3.28C862.45,496.75,864.07,494.94,865.45,493.24Z" />
  <path
     id="path171"
     fill="#a1616a"
     transform="translate(-35.84 -56.63)"
     d="M881.73,574.49c-7.78,6.36-15.65,12.78-24.63,17.28-5.27,2.64-10.87,4.59-16,7.43a6.39,6.39,0,0,0-3,2.72,6.72,6.72,0,0,0-.16,3.75l2.28,15.72c.63,4.26,4.72,7,8,9.72-.18-1.43-.47-2.54.21-3.81a12.8,12.8,0,0,1,.77-1.15c1.4-2.12,1.45-4.87,1.11-7.39s-1-5-.87-7.58a2.48,2.48,0,0,1,1.06-2.2c11.17-5.37,23.2-9.49,34.49-14.59a36.55,36.55,0,0,0,8.37-4.75,12.88,12.88,0,0,0,4.86-8.07,1.58,1.58,0,0,0-.2-1.23,1.67,1.67,0,0,0-.85-.5C892.11,578,886.77,576.31,881.73,574.49Z" />
  <path
     id="path173"
     opacity="0.1"
     transform="translate(-35.84 -56.63)"
     d="M860.12,508.53c-3.86.65-7.92,2.65-9.23,6.35a14.11,14.11,0,0,0-.52,5,16.26,16.26,0,0,0,1.17,6.93,19.57,19.57,0,0,0,2.34,3.4c9.24,11.84,13.88,26.71,22.88,38.74.8,1.06,2.26,2.44,1.81,3.69a8.94,8.94,0,0,0-.43,1,2,2,0,0,0,.66,1.75,4.27,4.27,0,0,1,1.09,1.59c.17.63-.25,1.45-.9,1.4,1.08,3.34,4.39,5.29,7.53,6.87,5.22,2.63,11,4.7,16.81,4.13,1.09-4.37,2.61-9.31,2-13.76a35.72,35.72,0,0,0-3.35-9.76l-3.91-8.54c-3.33-7.29-6.69-14.63-11.33-21.16a32,32,0,0,1-4.19-6.75c-1.19-3.09-4.46-5.26-6.44-7.91-2.94-4-6-8-9.94-10.89C864.59,509.39,862.05,508.21,860.12,508.53Z" />
  <path
     id="path175"
     fill="#6c63ff"
     transform="translate(-35.84 -56.63)"
     d="M860.12,506.56c-3.86.65-7.92,2.65-9.23,6.34a14.19,14.19,0,0,0-.52,5,16.26,16.26,0,0,0,1.17,6.93,19.57,19.57,0,0,0,2.34,3.4c9.24,11.84,13.88,26.71,22.88,38.74.8,1.06,2.26,2.44,1.81,3.69a8.94,8.94,0,0,0-.43,1,2,2,0,0,0,.66,1.75,4.27,4.27,0,0,1,1.09,1.59c.17.63-.25,1.45-.9,1.4,1.08,3.34,4.39,5.29,7.53,6.87,5.22,2.63,11,4.7,16.81,4.13,1.09-4.37,2.61-9.31,2-13.76a35.72,35.72,0,0,0-3.35-9.76l-3.91-8.54c-3.33-7.29-6.69-14.63-11.33-21.16a31.84,31.84,0,0,1-4.19-6.76c-1.19-3.08-4.46-5.25-6.44-7.9-2.94-4-6-8-9.94-10.89C864.59,507.42,862.05,506.24,860.12,506.56Z" />
  <path
     id="path177"
     fill="#3f3d56"
     transform="translate(-35.84 -56.63)"
     d="M851.31,422.81c-2.79.24-5.66.5-8.18,1.72s-4.67,3.62-4.75,6.42c0,1.63.6,3.25.39,4.86-.35,2.68-2.84,4.49-4.12,6.86-2.24,4.12-.5,9.36,2.4,13s6.83,6.44,9.81,10.06a26,26,0,0,1,5.42,20.92,16.6,16.6,0,0,0-.53,4.37c.23,2.62,2,4.79,3.76,6.79a313.68,313.68,0,0,1,23.72,31.56,85.27,85.27,0,0,1,5.84,10c1.7,3.58,3,7.4,5.36,10.57a27.91,27.91,0,0,0,7.87,6.75,55.58,55.58,0,0,0,25.2,8.13l-5.15-12.77c-.91-2.27-1.85-4.66-1.55-7.09.57-4.6,5.21-7.62,6.72-12,1-2.82.55-5.93-.27-8.8-1.82-6.47-5.46-12.29-7.42-18.72a38,38,0,0,1-1.12-17.41c.43-2.56,1.13-5.13.81-7.7-.95-7.82-10.12-11.56-14.36-18.19-2.74-4.26-3.27-9.51-4.19-14.49-1.33-7.27-3.7-14.53-8.28-20.33s-11.64-10-19-9.69c-3.94.15-7.71,1.52-11.42,2.86L848.63,424" />
  <g
     id="g189"
     opacity="0.1">
    <path
       id="path179"
       transform="translate(-35.84 -56.63)"
       d="M894.34,439.14c.83,4.49,1.35,9.2,3.45,13.21-.29-1.56-.53-3.13-.82-4.67a58.24,58.24,0,0,0-3.22-11.46C894,437.19,894.17,438.16,894.34,439.14Z" />
    <path
       id="path181"
       transform="translate(-35.84 -56.63)"
       d="M912.08,479.52a38.19,38.19,0,0,0,1.12,17.42c.47,1.53,1,3,1.64,4.5a38.07,38.07,0,0,1-.13-13.38c.43-2.56,1.13-5.13.81-7.7a12,12,0,0,0-2.6-6C912.77,476.1,912.37,477.81,912.08,479.52Z" />
    <path
       id="path183"
       transform="translate(-35.84 -56.63)"
       d="M923.25,524.19a48.27,48.27,0,0,0-2-5.52,12.27,12.27,0,0,1-.38,5.78c-1.51,4.37-6.16,7.4-6.72,12-.3,2.43.63,4.82,1.55,7.09.34.85.68,1.71,1,2.56a8.24,8.24,0,0,1,0-1.11c.57-4.6,5.21-7.62,6.72-12C924.5,530.17,924.07,527.06,923.25,524.19Z" />
    <path
       id="path185"
       transform="translate(-35.84 -56.63)"
       d="M895.68,548.18a28,28,0,0,1-7.87-6.76c-2.37-3.17-3.67-7-5.37-10.57a84.33,84.33,0,0,0-5.84-10,314.08,314.08,0,0,0-23.71-31.57c-.31-.35-.61-.71-.91-1.07a10.28,10.28,0,0,0-.23,2.82c.23,2.62,2,4.79,3.76,6.79a313.68,313.68,0,0,1,23.72,31.56,85.27,85.27,0,0,1,5.84,10c1.7,3.58,3,7.4,5.36,10.57a27.91,27.91,0,0,0,7.87,6.75,55.58,55.58,0,0,0,25.2,8.13L920,556.23A55.64,55.64,0,0,1,895.68,548.18Z" />
    <path
       id="path187"
       transform="translate(-35.84 -56.63)"
       d="M844.23,457.23c-3-3.62-6.91-6.37-9.81-10.05-.26-.34-.51-.69-.76-1.06a14.56,14.56,0,0,0,3.39,9.59c2.9,3.69,6.83,6.44,9.81,10.06a25,25,0,0,1,3,4.56A26,26,0,0,0,844.23,457.23Z" />
  </g>
  <path
     id="path191"
     fill="#3acc6c"
     transform="translate(-35.84 -56.63)"
     d="M453.88,354.58l-7.25-7.29a3.85,3.85,0,0,0-5.47,0L395.63,392.4,376.37,373a3.84,3.84,0,0,0-5.43,0l-7.33,7.25a3.89,3.89,0,0,0,0,5.47l29.25,29.47a3.88,3.88,0,0,0,5.46,0l55.56-55.14A3.85,3.85,0,0,0,453.88,354.58Z" />
  <path
     id="path193"
     fill="#3acc6c"
     transform="translate(-35.84 -56.63)"
     d="M654.88,354.58l-7.25-7.29a3.85,3.85,0,0,0-5.47,0L596.63,392.4,577.37,373a3.84,3.84,0,0,0-5.43,0l-7.33,7.25a3.89,3.89,0,0,0,0,5.47l29.25,29.47a3.88,3.88,0,0,0,5.46,0l55.56-55.14A3.85,3.85,0,0,0,654.88,354.58Z" />
  <path
     id="path1023"
     d="m 812.94844,537.92794 c 0.3714,-1.46755 0.5947,-3.35933 0.596,-5.04921 7.5e-4,-0.98496 0.21465,-2.95166 0.47532,-4.37046 0.29134,-1.58576 0.47394,-3.5975 0.47394,-5.22153 0,-2.63755 0.002,-2.64515 1.00714,-4.6345 0.91822,-1.8167 1.00713,-2.14953 1.00713,-3.76991 0,-1.35425 -0.1914,-2.39315 -0.80409,-4.36453 -0.76643,-2.46604 -0.79735,-2.70502 -0.6602,-5.10224 0.13286,-2.32207 0.10076,-2.60534 -0.4185,-3.69255 -0.30932,-0.64765 -1.2467,-1.95728 -2.08307,-2.91029 -1.87881,-2.14084 -2.89012,-3.78612 -3.62357,-5.89514 -1.54498,-4.44261 -1.28863,-8.82777 0.76191,-13.03317 0.45676,-0.93677 1.75742,-2.85625 2.89034,-4.26551 1.13292,-1.40926 2.3029,-2.90886 2.59995,-3.33245 0.29706,-0.42359 0.68667,-0.77016 0.86581,-0.77016 0.45617,0 4.14752,4.97025 6.42401,8.64967 2.13738,3.45457 4.09708,7.02253 7.67918,13.98124 4.61236,8.9601 7.60166,14.00674 10.97888,18.53491 1.31149,1.75844 1.47058,1.89656 1.64413,1.42741 0.30024,-0.81164 0.0416,-1.40655 -1.53487,-3.53013 -3.5672,-4.80524 -6.12524,-9.1736 -11.99991,-20.49223 -4.95833,-9.55315 -7.16341,-13.24535 -10.79185,-18.06995 -2.23156,-2.96723 -2.67342,-3.75791 -3.23747,-5.79335 -0.36134,-1.30394 -0.47099,-2.45376 -0.47806,-5.01279 -0.0107,-3.87715 0.29857,-5.21922 1.5937,-6.91593 0.78311,-1.02592 0.87792,-1.31814 1.05685,-3.25722 0.2249,-2.43736 0.81342,-4.37811 1.94623,-6.41806 1.19307,-2.14846 1.32809,-2.10017 4.33516,1.55047 5.98113,7.26121 11.84781,15.14006 17.2848,23.2132 5.41911,8.04659 7.09868,10.94114 9.48784,16.35113 1.70384,3.85816 2.92533,6.11752 4.2099,7.78691 2.46484,3.20325 6.7472,6.4055 12.02359,8.99099 l 2.75612,1.35053 0.15015,5.56886 c 0.0826,3.06287 0.21312,6.67509 0.29009,8.02715 0.10048,1.76502 0.0661,2.41266 -0.12183,2.2965 -0.17512,-0.10823 -0.26178,0.16639 -0.26178,0.82956 0,1.01759 -0.85139,5.44711 -1.61399,8.39705 l -0.42883,1.65881 -1.64453,0.0746 c -3.87808,0.17592 -9.06453,-1.2674 -14.72262,-4.09708 -3.87277,-1.93683 -6.28953,-3.82339 -7.21049,-5.62861 -0.43686,-0.85632 -0.44635,-0.97559 -0.10741,-1.35011 0.57249,-0.6326 0.44476,-1.48031 -0.3724,-2.47168 -0.55894,-0.67809 -0.79398,-0.82424 -0.94426,-0.58718 -0.36422,0.57454 -0.21541,1.33607 0.40521,2.07363 0.3369,0.40039 0.57683,0.82775 0.53318,0.94969 -0.25629,0.71597 -10.90457,8.6756 -15.68694,11.72605 -3.89581,2.48495 -13.49525,7.24928 -14.60626,7.24928 -0.19679,0 -0.23611,-0.20724 -0.12363,-0.65167 z"
     style="fill:#162d50;fill-opacity:1;stroke:#c2f0b3;stroke-width:0.255109;stroke-linecap:round;stroke-linejoin:round;stroke-dasharray:0.127554, 0.127554;paint-order:stroke fill markers" />
  <path
     id="path1025"
     d="m 831.67424,550.15456 c -1.30335,-0.11434 -3.54275,-0.39349 -4.97643,-0.62033 -4.20881,-0.66593 -4.29797,-0.60241 7.70162,-5.48686 17.10792,-6.96381 19.79754,-8.25018 23.5788,-11.27716 l 0.94789,-0.75881 2.13276,0.43645 c 1.17301,0.24005 3.104,0.43824 4.29107,0.44043 l 2.15832,0.004 0.5124,-1.95502 c 0.28182,-1.07527 0.65148,-2.59486 0.82148,-3.37687 0.25231,-1.16072 0.40375,-1.43574 0.82463,-1.49756 0.28355,-0.0417 0.51555,0.0347 0.51555,0.16958 0,0.13492 0.1653,1.44865 0.36732,2.9194 0.80226,5.84053 2.36633,10.45254 4.78779,14.11793 0.45564,0.6897 0.78845,1.28953 0.73958,1.33297 -0.3832,0.34063 -15.34684,3.45801 -21.17944,4.41233 -8.0966,1.32475 -16.44358,1.73433 -23.22334,1.13954 z"
     style="fill:#162d50;fill-opacity:1;stroke:#c2f0b3;stroke-width:0.255109;stroke-linecap:round;stroke-linejoin:round;stroke-dasharray:0.127554, 0.127554;paint-order:stroke fill markers" />
  <path
     id="path1027"
     d="m 812.48077,426.60198 c -4.17475,-0.75287 -5.01697,-1.01561 -5.81562,-1.81426 -0.83633,-0.83633 -1.04965,-1.85901 -0.849,-4.07017 0.39851,-4.39173 0.451,-4.47702 1.99696,-3.24474 2.03516,1.62221 6.67354,3.80522 8.0852,3.80522 0.56106,0 0.72815,0.84964 0.72815,3.7027 0,2.61773 0.43552,2.44742 -4.14569,1.62125 z"
     style="fill:#162d50;fill-opacity:1;stroke:#c2f0b3;stroke-width:0.255109;stroke-linecap:round;stroke-linejoin:round;stroke-dasharray:0.127554, 0.127554;paint-order:stroke fill markers" />
  <path
     id="path1029"
     d="m 898.67906,672.70678 c -0.81419,-0.11473 -1.58731,-0.27471 -1.71805,-0.35551 -0.14844,-0.0917 -0.23771,-2.31464 -0.23771,-5.91913 v -5.77221 l 1.15964,-0.2487 c 2.42833,-0.52079 5.67251,-0.79041 7.84533,-0.65202 3.61449,0.23022 5.93153,1.00759 7.9981,2.6834 1.77559,1.43985 1.79072,1.3474 -0.81181,4.9591 -2.51897,3.49573 -3.16176,4.03323 -5.83218,4.87687 -1.7015,0.53754 -6.0536,0.7593 -8.40332,0.4282 z"
     style="fill:#162d50;fill-opacity:1;stroke:#c2f0b3;stroke-width:0.255109;stroke-linecap:round;stroke-linejoin:round;stroke-dasharray:0.127554, 0.127554;paint-order:stroke fill markers" />
  <path
     id="path1031"
     d="m 918.60347,687.41949 c -1.24941,-0.31632 -2.79968,-1.35875 -3.47944,-2.33964 -0.80525,-1.16197 -1.89909,-4.35635 -2.28837,-6.68278 -0.36302,-2.16946 -0.17899,-4.98058 0.4289,-6.55177 0.47035,-1.21568 4.44186,-6.95913 4.81214,-6.95913 0.65801,0 2.58478,1.19909 3.66907,2.28337 2.33567,2.33567 3.80546,6.18405 4.35684,11.40757 0.40445,3.83165 0.0201,5.45262 -1.70092,7.17364 -1.37642,1.37642 -3.98614,2.12751 -5.79822,1.66874 z"
     style="fill:#162d50;fill-opacity:1;stroke:#c2f0b3;stroke-width:0.255109;stroke-linecap:round;stroke-linejoin:round;stroke-dasharray:0.127554, 0.127554;paint-order:stroke fill markers" />
  <path
     id="path1033"
     d="m 920.42059,650.03203 c -3.33467,-0.27756 -7.67176,-1.38824 -9.78348,-2.50544 -2.3999,-1.26966 -3.91225,-3.62919 -4.13932,-6.45808 -0.31122,-3.87716 2.48589,-8.1837 5.94568,-9.15419 3.89941,-1.09381 8.95553,1.02277 12.61114,5.27922 1.07074,1.24673 3.20491,5.22448 3.1666,5.90205 -0.0107,0.18949 -0.89059,1.83746 -1.95529,3.66215 l -1.93582,3.31762 -1.42157,0.0227 c -0.78186,0.0125 -1.90144,-0.0172 -2.48794,-0.0661 z"
     style="fill:#162d50;fill-opacity:1;stroke:#c2f0b3;stroke-width:0.255109;stroke-linecap:round;stroke-linejoin:round;stroke-dasharray:0.127554, 0.127554;paint-order:stroke fill markers" />
  <path
     id="path1035"
     d="m 937.24694,662.13536 c -0.58581,-0.21276 -1.54555,-0.71509 -2.13276,-1.11629 -2.26424,-1.54698 -6.0746,-5.95524 -7.82131,-9.0486 l -0.53563,-0.94856 2.04204,-3.5428 c 1.12312,-1.94854 2.1993,-3.63081 2.3915,-3.73838 0.64418,-0.3605 4.02283,-0.4799 5.78743,-0.20453 4.59945,0.71777 9.1589,3.66232 10.67499,6.89406 0.50789,1.08262 0.61149,1.64577 0.61044,3.31818 -10e-4,1.68627 -0.10448,2.23492 -0.6351,3.3693 -0.84125,1.79842 -2.47186,3.49909 -4.2779,4.4617 -1.21589,0.64807 -1.78225,0.79833 -3.2553,0.86367 -1.22908,0.0545 -2.11432,-0.0411 -2.8484,-0.30775 z"
     style="fill:#162d50;fill-opacity:1;stroke:#c2f0b3;stroke-width:0.255109;stroke-linecap:round;stroke-linejoin:round;stroke-dasharray:0.127554, 0.127554;paint-order:stroke fill markers" />
  <path
     id="path1037"
     d="M 901.86177,697.95601 C 899.73118,697.19615 899.33,696.2437 899.33,691.94535 v -3.32021 l 2.26479,-2.62754 c 1.38098,-1.60217 2.43782,-2.62755 2.70816,-2.62755 1.15591,0 3.2718,9.19665 2.74942,11.95028 -0.22234,1.17203 -1.3841,2.36801 -2.63857,2.71629 -1.17501,0.32622 -1.43428,0.31803 -2.55203,-0.0806 z"
     style="fill:#162d50;fill-opacity:1;stroke:#c2f0b3;stroke-width:0.255109;stroke-linecap:round;stroke-linejoin:round;stroke-dasharray:0.127554, 0.127554;paint-order:stroke fill markers" />
  <path
     id="path1039"
     d="m 896.7233,683.72551 c 0,-2.37396 0.0656,-2.96216 0.33011,-2.96216 0.53175,0 4.02454,0.74683 4.36781,0.93393 0.42686,0.23267 -3.62863,4.99039 -4.25382,4.99039 -0.41047,0 -0.4441,-0.22433 -0.4441,-2.96216 z"
     style="fill:#162d50;fill-opacity:1;stroke:#c2f0b3;stroke-width:0.255109;stroke-linecap:round;stroke-linejoin:round;stroke-dasharray:0.127554, 0.127554;paint-order:stroke fill markers" />
  <path
     id="path1041"
     d="m 926.81885,624.91005 c -4.33257,-0.46399 -7.11956,-1.51055 -8.75903,-3.28916 -3.27305,-3.55084 -3.10696,-9.43351 0.36561,-12.94928 1.34363,-1.36036 2.68497,-2.0385 4.72242,-2.3875 1.34682,-0.2307 1.83012,-0.19859 3.82438,0.25407 4.03763,0.91646 7.76715,3.11398 10.6027,6.24736 1.53095,1.69175 2.98835,3.78701 2.98835,4.29623 0,0.1866 -0.68099,1.92806 -1.51332,3.8699 l -1.51333,3.53062 -1.86354,0.2808 c -1.73711,0.26175 -6.97113,0.34862 -8.85424,0.14696 z"
     style="fill:#162d50;fill-opacity:1;stroke:#c2f0b3;stroke-width:0.255109;stroke-linecap:round;stroke-linejoin:round;stroke-dasharray:0.127554, 0.127554;paint-order:stroke fill markers" />
  <path
     id="path1043"
     d="m 953.07547,638.0665 c -0.74291,-0.0964 -1.91592,-0.4606 -2.60671,-0.80938 -1.50463,-0.75969 -4.87666,-3.97607 -6.93359,-6.61354 -1.73446,-2.22398 -3.50168,-5.09667 -3.34898,-5.44388 0.0589,-0.13391 0.88764,-2.04239 1.84165,-4.24108 l 1.73458,-3.9976 3.19913,0.12102 c 4.77692,0.1807 7.93222,1.15307 11.41679,3.51832 3.04281,2.06538 4.64998,4.21283 5.13016,6.85474 1.04099,5.72737 -4.51572,11.37907 -10.43303,10.6114 z"
     style="fill:#162d50;fill-opacity:1;stroke:#c2f0b3;stroke-width:0.255109;stroke-linecap:round;stroke-linejoin:round;stroke-dasharray:0.127554, 0.127554;paint-order:stroke fill markers" />
  <path
     id="path1045"
     d="m 964.35019,550.87132 c -0.91235,-0.16724 -2.11203,-0.44109 -2.66595,-0.60856 -1.16411,-0.35193 -1.10984,0.004 -0.68158,-4.47577 l 0.30397,-3.17995 2.72516,-2.65043 c 5.36069,-5.21371 10.86223,-8.01345 14.25232,-7.25303 3.88241,0.87084 6.56423,4.30671 6.56423,8.40992 0,4.3157 -2.23103,6.66419 -8.24497,8.67904 -4.06008,1.36025 -8.55759,1.75622 -12.25318,1.07878 z"
     style="fill:#162d50;fill-opacity:1;stroke:#c2f0b3;stroke-width:0.255109;stroke-linecap:round;stroke-linejoin:round;stroke-dasharray:0.127554, 0.127554;paint-order:stroke fill markers" />
  <path
     id="path1047"
     d="m 970.75323,578.2196 c -3.80145,-0.59033 -7.89628,-2.10257 -11.09969,-4.09917 -2.49606,-1.55573 -2.4223,-1.39945 -1.94514,-4.12114 0.22289,-1.27133 0.46076,-2.55289 0.52861,-2.84792 0.13683,-0.59494 2.10183,-1.79566 4.59972,-2.81064 4.80652,-1.95306 11.00551,-2.41826 14.08318,-1.05687 1.38288,0.61172 2.87862,2.17357 3.61655,3.77643 0.51117,1.11031 0.61583,1.68171 0.61408,3.35268 -0.002,1.69137 -0.10736,2.24667 -0.65863,3.46394 -1.63593,3.61229 -4.94372,5.0873 -9.73868,4.34269 z"
     style="fill:#162d50;fill-opacity:1;stroke:#c2f0b3;stroke-width:0.255109;stroke-linecap:round;stroke-linejoin:round;stroke-dasharray:0.127554, 0.127554;paint-order:stroke fill markers" />
  <path
     id="path1049"
     d="m 943.04826,572.7665 c -5.51059,-0.76258 -8.77476,-2.36846 -10.1019,-4.96986 -2.05558,-4.02928 0.17964,-9.76983 4.42219,-11.35717 1.71951,-0.64334 3.29929,-0.60722 5.49381,0.12563 4.49449,1.50093 8.9837,4.76564 12.01132,8.73505 l 0.61478,0.80602 -0.539,2.76569 c -0.35614,1.82738 -0.66342,2.83227 -0.90573,2.96195 -1.47644,0.79017 -8.01649,1.34492 -10.99547,0.93269 z"
     style="fill:#162d50;fill-opacity:1;stroke:#c2f0b3;stroke-width:0.255109;stroke-linecap:round;stroke-linejoin:round;stroke-dasharray:0.127554, 0.127554;paint-order:stroke fill markers" />
  <path
     id="path1051"
     d="m 950.13181,549.06164 c -4.5339,-0.64715 -10.61923,-3.56461 -13.20806,-6.33228 -1.88949,-2.02002 -2.49886,-4.67374 -1.70032,-7.40461 1.35728,-4.6416 5.89674,-7.31624 10.03832,-5.91456 4.06163,1.37462 9.68139,6.90808 12.81223,12.61548 l 0.61209,1.11582 -0.29615,2.7628 c -0.16288,1.51954 -0.3537,2.82035 -0.42405,2.8907 -0.47683,0.47683 -5.22846,0.63857 -7.83406,0.26665 z"
     style="fill:#162d50;fill-opacity:1;stroke:#c2f0b3;stroke-width:0.255109;stroke-linecap:round;stroke-linejoin:round;stroke-dasharray:0.127554, 0.127554;paint-order:stroke fill markers" />
  <path
     id="path1053"
     d="m 949.75471,522.42893 c -4.21812,-0.80071 -9.82882,-3.53355 -11.98405,-5.83714 -1.63675,-1.74942 -2.40583,-4.32314 -1.97751,-6.6177 0.74641,-3.99863 3.92949,-7.11462 7.66124,-7.49977 4.19846,-0.43332 10.6212,4.29392 15.23069,11.21005 l 1.28111,1.92218 v 2.96905 2.96904 l -1.94578,0.52502 c -2.47177,0.66696 -5.86731,0.81454 -8.2657,0.35927 z"
     style="fill:#162d50;fill-opacity:1;stroke:#c2f0b3;stroke-width:0.255109;stroke-linecap:round;stroke-linejoin:round;stroke-dasharray:0.127554, 0.127554;paint-order:stroke fill markers" />
  <path
     id="path1055"
     d="m 965.53505,523.13592 c -0.78201,-0.17531 -1.84839,-0.47072 -2.36973,-0.65647 l -0.94789,-0.33772 -0.0646,-4.14847 -0.0646,-4.14847 2.37351,-2.27816 c 4.98053,-4.78042 10.11941,-7.51383 13.54264,-7.20342 6.80703,0.61723 10.15093,9.60505 5.35709,14.39889 -1.67041,1.6704 -6.18373,3.61307 -10.13593,4.36279 -2.3313,0.44223 -5.74519,0.44713 -7.69055,0.011 z"
     style="fill:#162d50;fill-opacity:1;stroke:#c2f0b3;stroke-width:0.255109;stroke-linecap:round;stroke-linejoin:round;stroke-dasharray:0.127554, 0.127554;paint-order:stroke fill markers" />
  <path
     id="path1057"
     d="m 934.73606,597.89369 c -4.98739,-0.56937 -7.18502,-1.36624 -8.87878,-3.21949 -1.54337,-1.68869 -2.00251,-3.07865 -1.85888,-5.62736 0.13488,-2.39354 0.77158,-3.8332 2.43456,-5.50491 2.10846,-2.11952 4.79967,-2.55546 8.71663,-1.41196 5.07979,1.48297 9.69112,4.69893 12.8805,8.9829 1.13062,1.51865 1.11909,1.35613 0.29886,4.21214 -0.50621,1.76256 -0.1594,1.56295 -3.88449,2.23582 -2.44542,0.44173 -7.29759,0.60809 -9.7084,0.33286 z"
     style="fill:#162d50;fill-opacity:1;stroke:#c2f0b3;stroke-width:0.255109;stroke-linecap:round;stroke-linejoin:round;stroke-dasharray:0.127554, 0.127554;paint-order:stroke fill markers" />
  <path
     id="path1059"
     d="m 963.63927,605.24558 c -2.74568,-0.63204 -5.38191,-1.54214 -7.85886,-2.71311 -2.14485,-1.01397 -5.53011,-3.06188 -5.53011,-3.34543 0,-0.0804 0.43763,-1.53427 0.9725,-3.23082 l 0.97251,-3.08463 1.93041,-0.9043 c 3.75901,-1.76088 8.33718,-2.53587 12.47315,-2.11144 3.23633,0.33211 4.77109,0.93496 6.3177,2.48157 2.6956,2.69559 2.89664,7.0537 0.48311,10.47286 -0.79657,1.12847 -2.07898,2.09505 -3.40906,2.56948 -1.24932,0.44562 -4.09363,0.38553 -6.35135,-0.13418 z"
     style="fill:#162d50;fill-opacity:1;stroke:#c2f0b3;stroke-width:0.255109;stroke-linecap:round;stroke-linejoin:round;stroke-dasharray:0.127554, 0.127554;paint-order:stroke fill markers" />
  <path
     id="path1061"
     d="m 220.5612,576.10947 c -2.4942,-4.0357 -45.88454,-18.61477 -60.86826,-20.45162 l -3.90539,-0.47876 0.45463,-3.30559 c 0.62057,-4.51209 1.36002,-6.9396 2.07005,-6.79571 0.32685,0.0662 6.46163,2.10688 13.63285,4.53476 7.17121,2.42788 13.31375,4.32261 13.65008,4.21049 0.33632,-0.11211 -5.15401,-3.1867 -12.20075,-6.83244 -8.48393,-4.38929 -12.81226,-6.9886 -12.81226,-7.6942 0,-0.58608 0.7803,-2.21391 1.734,-3.61741 1.55263,-2.2849 1.62942,-2.66924 0.73411,-3.67446 -0.54995,-0.61745 -1.92522,-2.95339 -3.05616,-5.19097 -9.99474,-19.77476 -0.4743,-43.39338 20.57609,-51.04578 6.07955,-2.21009 14.42006,-2.73031 20.2276,-1.26165 8.80795,2.22743 16.94709,7.60701 21.48239,14.19884 l 2.02694,2.94606 -10.24658,7.57613 c -5.63562,4.16687 -11.67876,8.59573 -13.42921,9.84191 -1.75044,1.24618 -3.04832,2.40008 -2.88417,2.56423 0.16415,0.16414 6.49647,-2.9028 14.07183,-6.81543 7.57537,-3.91264 14.19687,-7.11388 14.71445,-7.11388 1.45446,0 2.75599,6.28728 2.70564,13.07008 -0.0411,5.53512 -0.54141,8.26961 -2.41435,13.19557 l -0.68481,1.80114 -10.82785,-0.37731 c -11.60626,-0.40443 -13.47236,0.31904 -4.46038,1.72924 2.76483,0.43265 6.91072,1.10916 9.2131,1.50336 l 4.18615,0.71674 -1.33196,1.87056 -1.33195,1.87056 2.29875,3.81745 c 5.05541,8.39534 6.74686,17.84498 4.77814,26.69402 -2.01347,9.05013 -6.22429,15.55344 -8.10272,12.51407 z"
     style="fill:#162d50;fill-opacity:1;stroke:#c2f0b3;stroke-width:0.721556;stroke-linecap:round;stroke-linejoin:round;stroke-dasharray:0.360778, 0.360778;paint-order:stroke fill markers" />
  <path
     id="path1063"
     d="m 167.61989,709.46257 c -21.47775,-1.94797 -37.44352,-6.20008 -39.39958,-10.49316 -0.6854,-1.50429 -0.54238,-1.88226 1.35299,-3.57577 5.198,-4.64442 21.80355,-7.80729 50.69986,-9.65684 l 5.95066,-0.38088 -0.56102,2.18886 c -0.89567,3.49453 -0.60204,8.70944 0.62266,11.05846 3.1835,6.10608 11.64535,5.15936 13.85985,-1.55065 0.78067,-2.36542 0.60513,-7.28507 -0.36562,-10.24694 l -0.52029,-1.58747 6.9691,0.42978 c 3.83301,0.23637 11.09522,0.7642 16.13826,1.17295 l 9.16915,0.74317 0.2145,10.1333 c 0.11797,5.57331 0.20613,10.19192 0.19591,10.26358 -0.21281,1.49232 -51.28414,2.6845 -64.32643,1.50161 z"
     style="fill:#162d50;fill-opacity:1;stroke:#c2f0b3;stroke-width:0.721556;stroke-linecap:round;stroke-linejoin:round;stroke-dasharray:0.360778, 0.360778;paint-order:stroke fill markers" />
  <path
     id="path1065"
     d="m 961.25782,495.66232 c -0.014,-0.71685 -0.21095,-3.00956 -0.43754,-5.09492 l -0.41198,-3.79157 1.94827,-3.31762 c 4.34441,-7.39789 6.23196,-9.24381 9.44856,-9.24017 3.17339,0.004 6.53478,3.32513 6.53852,6.46098 0.004,3.15165 -6.95986,11.26623 -12.52991,14.6009 -3.46923,2.07695 -4.52096,2.16522 -4.55592,0.3824 z"
     style="fill:#162d50;fill-opacity:1;stroke:#c2f0b3;stroke-width:0.510217;stroke-linecap:round;stroke-linejoin:round;stroke-dasharray:0.255109, 0.255109;paint-order:stroke fill markers" />
  <path
     id="path1067"
     d="m 955.17342,497.87488 c -4.63852,-0.91095 -12.27132,-5.45456 -15.88785,-9.45762 -1.71272,-1.89578 -1.79575,-2.133 -1.59479,-4.55634 0.16485,-1.98788 0.51039,-2.86789 1.55367,-3.95683 1.64145,-1.71331 4.01232,-2.55327 5.98434,-2.12014 1.70362,0.37418 7.79397,5.98169 11.28996,10.3949 2.1799,2.75183 2.27644,3.00449 2.49702,6.53558 0.25886,4.14364 0.43332,4.00014 -3.84235,3.16045 z"
     style="fill:#162d50;fill-opacity:1;stroke:#c2f0b3;stroke-width:0.510217;stroke-linecap:round;stroke-linejoin:round;stroke-dasharray:0.255109, 0.255109;paint-order:stroke fill markers" />
  <path
     id="path1069"
     d="m 952.87189,471.85978 c -5.08771,-2.30942 -15.13112,-10.20296 -17.16123,-13.48775 -1.69685,-2.74556 -0.90621,-5.89753 1.8943,-7.55184 2.40839,-1.42267 4.03682,-1.02726 6.89264,1.67366 5.6884,5.37985 10.83845,12.61243 11.31079,15.88455 0.18128,1.2558 0.44406,2.76315 0.58395,3.34966 0.32407,1.35874 -0.73036,1.3982 -3.52045,0.13172 z"
     style="fill:#162d50;fill-opacity:1;stroke:#c2f0b3;stroke-width:0.510217;stroke-linecap:round;stroke-linejoin:round;stroke-dasharray:0.255109, 0.255109;paint-order:stroke fill markers" />
  <path
     id="path1071"
     d="m 958.20611,469.35833 c -0.27505,-2.63629 -0.11924,-3.50459 1.41626,-7.89279 2.16325,-6.18219 6.03352,-13.95342 7.43968,-14.93832 3.11732,-2.18346 8.4397,0.60185 8.4397,4.41667 0,1.32382 -3.15753,7.28047 -5.94079,11.20725 -2.9192,4.11857 -8.95917,10.16935 -10.15117,10.16935 -0.7485,0 -0.94513,-0.48388 -1.20368,-2.96216 z"
     style="fill:#162d50;fill-opacity:1;stroke:#c2f0b3;stroke-width:0.510217;stroke-linecap:round;stroke-linejoin:round;stroke-dasharray:0.255109, 0.255109;paint-order:stroke fill markers" />
  <path
     id="path1073"
     d="m 946.87955,445.135 c -4.38801,-2.25791 -8.9702,-5.69054 -12.03574,-9.01625 -3.07088,-3.33152 -3.22004,-5.63156 -0.53905,-8.31255 1.1912,-1.1912 1.84453,-1.45845 3.56535,-1.45845 1.819,0 2.40462,0.27444 4.28592,2.00856 1.19847,1.10472 3.50976,3.67177 5.1362,5.70457 2.64527,3.30617 3.01276,4.03159 3.48425,6.87791 0.2899,1.75006 0.66645,3.87507 0.83678,4.72225 0.19724,0.98103 0.12312,1.54032 -0.20413,1.54032 -0.2826,0 -2.32091,-0.92986 -4.52958,-2.06636 z"
     style="fill:#162d50;fill-opacity:1;stroke:#c2f0b3;stroke-width:0.510217;stroke-linecap:round;stroke-linejoin:round;stroke-dasharray:0.255109, 0.255109;paint-order:stroke fill markers" />
  <path
     id="path1079"
     d="m 953.57427,444.90554 c -0.0668,-0.22808 -0.40367,-1.98269 -0.74855,-3.89912 l -0.62706,-3.48441 1.63736,-3.3878 c 1.77822,-3.67922 4.8489,-8.94624 6.15759,-10.56186 1.10957,-1.36981 2.31316,-1.9507 4.02834,-1.94419 2.32091,0.009 4.35683,1.32159 5.31263,3.42564 0.89534,1.97094 0.50906,3.47126 -1.78105,6.91756 -3.26949,4.92017 -7.74662,9.68907 -11.37394,12.11517 -1.98603,1.32834 -2.41647,1.46365 -2.60532,0.81901 z"
     style="fill:#162d50;fill-opacity:1;stroke:#c2f0b3;stroke-width:0.255109;stroke-linecap:round;stroke-linejoin:round;stroke-dasharray:0.127554, 0.127554;paint-order:stroke fill markers" />
  <path
     id="path1081"
     d="m 944.50228,418.5737 c -3.18388,-1.10832 -6.20118,-2.9946 -9.40781,-5.88132 -2.73816,-2.465 -4.56254,-4.67413 -4.87069,-5.89788 -0.85244,-3.38535 2.97163,-6.60485 6.20788,-5.22641 0.8559,0.36456 3.07008,2.60762 6.2292,6.31044 3.5624,4.17552 3.39337,3.86647 3.91172,7.1521 0.25329,1.60559 0.52131,3.2125 0.59558,3.57092 0.17593,0.84892 -0.15716,0.84544 -2.66588,-0.0279 z"
     style="fill:#162d50;fill-opacity:1;stroke:#c2f0b3;stroke-width:0.255109;stroke-linecap:round;stroke-linejoin:round;stroke-dasharray:0.127554, 0.127554;paint-order:stroke fill markers" />
  <path
     id="path1083"
     d="m 948.8379,417.89063 c -0.0651,-0.22808 -0.35676,-1.89137 -0.64808,-3.6962 -0.5219,-3.23326 -0.52338,-3.30641 -0.10093,-4.97643 0.90693,-3.58517 2.95716,-9.92845 3.51871,-10.88667 1.9024,-3.2462 7.18672,-2.47274 8.20709,1.20126 0.34725,1.25035 0.33997,1.29637 -0.68914,4.35459 -1.96998,5.85417 -5.10275,10.91638 -8.33853,13.47412 -1.3094,1.03502 -1.7691,1.15986 -1.94912,0.52933 z"
     style="fill:#162d50;fill-opacity:1;stroke:#c2f0b3;stroke-width:0.255109;stroke-linecap:round;stroke-linejoin:round;stroke-dasharray:0.127554, 0.127554;paint-order:stroke fill markers" />
  <path
     id="path1085"
     d="m 941.27355,392.01093 c -4.33575,-2.19891 -8.37877,-5.80379 -12.1983,-10.87639 -2.13847,-2.84005 -2.60684,-3.94739 -2.21823,-5.24447 0.56191,-1.87547 2.16703,-3.0843 4.09322,-3.08264 1.96151,0.002 2.65628,0.75518 7.07627,7.67444 3.35388,5.25032 4.65693,7.82515 4.95321,9.78757 0.4303,2.85009 0.44671,2.83334 -1.70617,1.74149 z"
     style="fill:#162d50;fill-opacity:1;stroke:#c2f0b3;stroke-width:0.255109;stroke-linecap:round;stroke-linejoin:round;stroke-dasharray:0.127554, 0.127554;paint-order:stroke fill markers" />
  <path
     id="path1087"
     d="m 944.43851,389.88457 c -0.23054,-1.5767 -0.21532,-2.10957 0.0944,-3.30479 1.05717,-4.07974 4.6089,-14.04396 5.48365,-15.38412 1.31332,-2.01209 4.84427,-1.95407 6.41512,0.10542 0.94069,1.23331 0.96762,2.46859 0.10126,4.64466 -1.7713,4.44906 -4.20924,8.58236 -6.96222,11.80381 -1.73626,2.03172 -3.95676,4.01482 -4.49544,4.01482 -0.27103,0 -0.43091,-0.47199 -0.63676,-1.8798 z"
     style="fill:#162d50;fill-opacity:1;stroke:#c2f0b3;stroke-width:0.255109;stroke-linecap:round;stroke-linejoin:round;stroke-dasharray:0.127554, 0.127554;paint-order:stroke fill markers" />
  <path
     id="path1089"
     d="m 937.78664,364.15175 c -1.87158,-0.73287 -3.85314,-2.16393 -5.94669,-4.29465 -2.27369,-2.31406 -4.85182,-5.9728 -5.08515,-7.21658 -0.43007,-2.29244 1.80683,-4.73093 4.30682,-4.69495 1.95078,0.0281 2.68016,0.71981 5.98996,5.68075 l 1.9333,2.89775 0.34409,3.38203 c 0.45297,4.45226 0.44988,4.68796 -0.0612,4.6743 -0.22809,-0.006 -0.89457,-0.19899 -1.48108,-0.42865 z"
     style="fill:#162d50;fill-opacity:1;stroke:#c2f0b3;stroke-width:0.255109;stroke-linecap:round;stroke-linejoin:round;stroke-dasharray:0.127554, 0.127554;paint-order:stroke fill markers" />
  <path
     id="path1091"
     d="m 935.93968,341.07192 c -2.53481,-3.45024 -4.34191,-7.51116 -5.65745,-12.71344 -0.44826,-1.77264 -0.87028,-4.07609 -0.93782,-5.11877 -0.15277,-2.35848 0.25204,-3.16507 1.90541,-3.7965 1.03492,-0.39524 1.13796,-0.39524 2.17288,0 0.67172,0.25653 1.24726,0.67936 1.50772,1.10766 0.23171,0.38101 0.85801,2.90139 1.39179,5.60084 0.80903,4.09144 1.0116,5.70873 1.21747,9.7198 0.3375,6.57579 0.34197,6.44452 -0.21951,6.44452 -0.28868,0 -0.81484,-0.47418 -1.38049,-1.24411 z"
     style="fill:#162d50;fill-opacity:1;stroke:#c2f0b3;stroke-width:0.255109;stroke-linecap:round;stroke-linejoin:round;stroke-dasharray:0.127554, 0.127554;paint-order:stroke fill markers" />
  <path
     id="path1093"
     d="m 939.20848,340.64367 c 0,-2.30355 0.15181,-2.83306 3.39316,-11.8351 3.2814,-9.11325 3.4951,-9.47959 5.52886,-9.47803 1.42546,0.001 2.47183,0.6018 3.00483,1.72501 0.54183,1.14182 0.51968,1.32012 -0.56568,4.55389 -1.1953,3.56133 -3.14545,7.64852 -4.90967,10.28985 -1.53646,2.30034 -5.40964,6.41747 -6.0368,6.41703 -0.35575,-2.5e-4 -0.4147,-0.23802 -0.4147,-1.67265 z"
     style="fill:#162d50;fill-opacity:1;stroke:#c2f0b3;stroke-width:0.255109;stroke-linecap:round;stroke-linejoin:round;stroke-dasharray:0.127554, 0.127554;paint-order:stroke fill markers" />
  <path
     id="path1095"
     d="m 941.23166,364.76921 c -0.0762,-0.55392 -0.34415,-3.05989 -0.59537,-5.56882 l -0.45677,-4.56168 0.65392,-2.32935 c 0.82593,-2.94207 1.31612,-3.77386 2.64362,-4.48587 1.81324,-0.97253 4.06334,-0.43393 5.37581,1.28681 0.95432,1.25119 0.88996,2.95482 -0.23822,6.30567 -1.45707,4.32769 -3.59815,8.03484 -5.6261,9.74125 -1.108,0.93232 -1.58982,0.82591 -1.75689,-0.38801 z"
     style="fill:#162d50;fill-opacity:1;stroke:#c2f0b3;stroke-width:0.255109;stroke-linecap:round;stroke-linejoin:round;stroke-dasharray:0.127554, 0.127554;paint-order:stroke fill markers" />
  <path
     id="path1097"
     d="m 945.71678,282.44205 c 0.25845,-1.37766 2.22432,-7.047 3.31433,-9.55813 1.298,-2.9903 3.72554,-7.2772 4.76099,-8.40766 0.90983,-0.9933 1.69655,-1.07737 2.62319,-0.2803 1.07834,0.92755 0.88556,1.49445 -2.3095,6.79123 -1.6117,2.67187 -3.81423,6.52681 -4.89453,8.56655 l -1.96417,3.7086 -0.83764,-0.0237 c -0.81404,-0.0231 -0.83356,-0.0455 -0.69267,-0.79655 z"
     style="fill:#162d50;fill-opacity:1;stroke:#c2f0b3;stroke-width:0.255109;stroke-linecap:round;stroke-linejoin:round;stroke-dasharray:0.127554, 0.127554;paint-order:stroke fill markers" />
  <path
     id="path1099"
     d="m 939.44545,304.32351 c 0,-0.71349 6.74325,-9.42657 8.2537,-10.66477 2.14568,-1.75892 3.31069,-1.88172 4.54248,-0.47878 1.45412,1.65614 0.8783,2.85428 -2.70775,5.63419 -3.38258,2.62217 -8.94885,6.06016 -9.81169,6.06016 -0.15221,0 -0.27674,-0.24786 -0.27674,-0.5508 z"
     style="fill:#162d50;fill-opacity:1;stroke:#c2f0b3;stroke-width:0.255109;stroke-linecap:round;stroke-linejoin:round;stroke-dasharray:0.127554, 0.127554;paint-order:stroke fill markers" />
  <path
     id="path1101"
     d="m 936.95811,304.10415 c -0.29751,-0.85783 -1.55893,-6.2711 -1.90032,-8.15506 -0.37187,-2.05213 -0.3706,-2.21974 0.0231,-3.04938 0.93376,-1.96776 3.05399,-2.31979 4.74082,-0.78714 l 0.49474,0.44952 -0.54831,2.05332 c -0.46335,1.73516 -1.06599,4.97847 -1.65303,8.89631 -0.10134,0.67638 -0.24316,0.88865 -0.5937,0.88865 -0.25331,0 -0.50679,-0.1333 -0.56329,-0.29622 z"
     style="fill:#ffdd55;fill-opacity:1;stroke:#c2f0b3;stroke-width:0.255109;stroke-linecap:round;stroke-linejoin:round;stroke-dasharray:0.127554, 0.12755400000000000;paint-order:stroke fill markers" />
  <path
     id="path1103"
     d="m 393.36463,206.35967 c -3.04257,-0.93508 -6.01307,-3.41523 -7.43726,-6.20956 -3.16466,-6.20925 -0.69315,-13.42557 5.60215,-16.35715 7.91314,-3.68496 16.80771,2.12096 16.80771,10.97123 0,4.65158 -2.40067,8.51408 -6.63411,10.67382 -2.15747,1.10066 -6.27515,1.55579 -8.33849,0.92166 z"
     style="fill:#ffdd55;fill-opacity:1;stroke:#c2f0b3;stroke-width:0.510217;stroke-linecap:round;stroke-linejoin:round;stroke-dasharray:0.255109, 0.255109;paint-order:stroke fill markers" />
  <path
     id="path1105"
     d="m 728.358,205.97202 c -9.65759,-3.42579 -10.9776,-16.52699 -2.18438,-21.68016 4.77676,-2.79937 10.97189,-1.78524 14.85965,2.43249 8.26576,8.96729 -1.18772,23.32259 -12.67527,19.24767 z"
     style="fill:#ffdd55;fill-opacity:1;stroke:#c2f0b3;stroke-width:0.510217;stroke-linecap:round;stroke-linejoin:round;stroke-dasharray:0.255109, 0.255109;paint-order:stroke fill markers" />
  <path
     id="path1107"
     d="m 544.24521,344.41257 c -8.30436,-8.27628 -15.42084,-15.65726 -15.8144,-16.40218 -0.39356,-0.74491 -0.59947,-1.81692 -0.45759,-2.38223 0.33847,-1.34856 9.40429,-10.24477 10.44009,-10.24477 1.76757,0 3.77222,1.73451 12.55156,10.86012 5.03707,5.23575 9.40533,9.51955 9.70724,9.51955 0.3019,0 2.9981,-2.46909 5.99156,-5.48686 2.99345,-3.01778 13.473,-13.36164 23.28788,-22.98637 14.86714,-14.57911 18.06612,-17.49951 19.1688,-17.49951 1.04282,0 2.30921,0.98565 5.97053,4.64698 4.0731,4.0731 4.64699,4.84768 4.64699,6.27216 0,1.50651 -1.23716,2.85512 -16.94357,18.46992 -38.45751,38.2332 -40.59654,40.28097 -42.07616,40.28097 -1.17027,0 -3.61372,-2.23205 -16.47293,-15.04778 z"
     style="fill:#ffdd55;fill-opacity:1;stroke:#c2f0b3;stroke-width:0.510217;stroke-linecap:round;stroke-linejoin:round;stroke-dasharray:0.255109, 0.255109;paint-order:stroke fill markers" />
  <path
     id="path1109"
     d="m 343.2922,344.41257 c -8.30436,-8.27628 -15.42084,-15.65726 -15.8144,-16.40218 -0.39356,-0.74491 -0.59948,-1.81692 -0.45759,-2.38223 0.36155,-1.44055 9.43406,-10.24862 10.53504,-10.22798 1.62761,0.0305 2.82518,1.08202 12.26095,10.76548 5.14356,5.27857 9.59769,9.5974 9.89808,9.5974 0.30039,0 5.34309,-4.81477 11.206,-10.69949 5.86291,-5.88472 16.34654,-16.22859 23.29696,-22.98637 10.24397,-9.96005 12.88135,-12.28688 13.92675,-12.28688 0.98809,0 2.33145,1.02168 5.74536,4.36958 4.49237,4.40551 5.23104,5.60372 4.71704,7.65165 -0.16032,0.63876 -12.591,13.27183 -28.91387,29.38464 -24.20907,23.8975 -28.83882,28.26416 -29.96707,28.26416 -1.1182,0 -3.78087,-2.43818 -16.43325,-15.04778 z"
     style="fill:#241c1c;fill-opacity:1;stroke:#c2f0b3;stroke-width:0.510217;stroke-linecap:round;stroke-linejoin:round;stroke-dasharray:0.255109, 0.25510899999999997;paint-order:stroke fill markers" />
  <path
     id="path1111"
     d="m 185.44426,638.31091 c -13.82852,-3.00874 -24.7729,-13.47876 -28.4943,-27.25927 -1.13908,-4.21804 -1.11374,-13.74701 0.0478,-17.98252 1.10117,-4.01531 3.20132,-8.59029 5.25674,-11.45129 l 1.65792,-2.3077 -2.14619,-3.31768 c -3.32151,-5.13453 -5.90008,-13.13296 -5.90008,-18.3014 0,-1.54014 0.0811,-1.61712 1.70285,-1.61712 9.03706,0 52.39061,13.67022 60.68032,19.13369 2.9035,1.9136 3.4953,2.48005 3.4953,3.34559 0,0.44564 0.61113,1.70178 1.35808,2.79143 8.24012,12.02074 8.56957,27.88907 0.83661,40.2961 -2.98962,4.79665 -8.98103,10.38817 -13.94223,13.01167 -7.35985,3.89192 -16.92757,5.31756 -24.55282,3.6585 z"
     style="fill:#241c1c;fill-opacity:1;stroke:#c2f0b3;stroke-width:0.510217;stroke-linecap:round;stroke-linejoin:round;stroke-dasharray:0.255109, 0.255109;paint-order:stroke fill markers" />
  <path
     id="path1113"
     d="m 864.79074,532.73242 c -0.47049,-0.0232 -1.47251,-0.10207 -1.73849,-0.13691 -0.16128,-0.0211 -0.40499,-0.05 -0.54158,-0.0642 -0.40251,-0.0418 -1.56882,-0.25014 -2.5551,-0.45635 -0.50509,-0.1056 -0.93395,-0.19201 -0.95303,-0.19201 -0.0944,0 -0.0108,-0.16114 0.20349,-0.39236 0.21674,-0.23383 0.79032,-0.93417 0.93942,-1.14705 l 0.0609,-0.0869 0.4804,0.10008 c 1.56069,0.32513 2.81168,0.47439 4.25062,0.50715 1.05645,0.024 2.51596,-0.0358 2.58694,-0.10612 0.0369,-0.0366 0.0685,-0.1531 0.45576,-1.68148 0.46883,-1.85037 0.99637,-4.23073 1.22549,-5.52965 0.12586,-0.71351 0.14393,-0.77605 0.22781,-0.78838 0.08,-0.0118 0.091,0.006 0.0907,0.14662 -0.002,0.63682 -0.40522,3.15582 -0.60638,3.7836 -0.0554,0.17281 -0.14708,0.52155 -0.20379,0.77499 -0.28432,1.27059 -1.02738,4.24606 -1.2695,5.08353 l -0.0648,0.22414 -1.20018,-0.0147 c -0.6601,-0.008 -1.28501,-0.0189 -1.38869,-0.024 z"
     style="fill:#241c1c;fill-opacity:1;stroke:#c2f0b3;stroke-width:0.0450972;stroke-linecap:round;stroke-linejoin:round;stroke-dasharray:0.0225486, 0.0225486;paint-order:stroke fill markers" />
  <path
     id="path1115"
     d="m 869.12549,525.98674 c 0.0636,-0.25248 0.31316,-1.82435 0.37409,-2.35639 0.0968,-0.84533 0.15612,-2.04052 0.14338,-2.88861 -0.007,-0.44959 0.005,-0.76922 0.0293,-0.79141 0.0224,-0.0205 0.0993,-0.0481 0.17088,-0.0615 l 0.13022,-0.0243 0.029,0.97174 c 0.0379,1.26867 0.13326,3.13305 0.21757,4.25235 0.037,0.49105 0.0588,0.90126 0.0485,0.91158 -0.0103,0.0103 -0.0999,-0.01 -0.19908,-0.0448 -0.21545,-0.076 -0.49511,-0.0505 -0.72424,0.066 -0.21605,0.10986 -0.25453,0.10378 -0.21964,-0.0347 z"
     style="fill:#241c1c;fill-opacity:1;stroke:#c2f0b3;stroke-width:0.0450972;stroke-linecap:round;stroke-linejoin:round;stroke-dasharray:0.0225486, 0.0225486;paint-order:stroke fill markers" />
  <path
     id="path1117"
     d="m 843.53092,519.38458 c -0.023,-0.0326 -0.14362,-0.2075 -0.26796,-0.38877 -0.12433,-0.18127 -0.28465,-0.39826 -0.35627,-0.48221 -0.20409,-0.23921 -0.43343,-0.68383 -0.48778,-0.94561 -0.0848,-0.40865 0.0282,-0.89159 0.20867,-0.89159 0.1706,0 0.90433,0.87388 1.12107,1.33519 0.21968,0.46757 0.24566,0.96535 0.0665,1.27308 -0.0859,0.14747 -0.21772,0.19382 -0.28418,0.0999 z"
     style="fill:#241c1c;fill-opacity:1;stroke:#c2f0b3;stroke-width:0.0450972;stroke-linecap:round;stroke-linejoin:round;stroke-dasharray:0.0225486, 0.0225486;paint-order:stroke fill markers" />
  <path
     id="path1121"
     d="m 842.2625,513.85478 c -0.13847,-0.0954 -1.50798,-1.93607 -2.47697,-3.32908 -1.88724,-2.71309 -4.20098,-6.52195 -6.10736,-10.05391 -1.25783,-2.33039 -1.78492,-3.32463 -2.90928,-5.48776 -0.32335,-0.62208 -0.8134,-1.56463 -1.08901,-2.09456 -0.27561,-0.52992 -0.79481,-1.52903 -1.15378,-2.22024 -2.47209,-4.76004 -4.9629,-9.15225 -6.70533,-11.82395 -1.40732,-2.15786 -3.39294,-4.91992 -4.56989,-6.35687 -0.2642,-0.32256 -0.65144,-0.8646 -0.86054,-1.20454 l -0.38018,-0.61806 0.20689,-0.40827 c 0.11379,-0.22455 0.261,-0.40828 0.32713,-0.40828 0.0661,0 0.24233,0.17909 0.39155,0.39797 0.14922,0.21888 0.70646,0.98235 1.2383,1.6966 0.53185,0.71424 1.04636,1.41173 1.14336,1.54998 0.097,0.13824 0.4944,0.70377 0.88311,1.25673 1.77526,2.52545 4.0093,6.22607 5.81659,9.635 0.21988,0.41472 0.61518,1.14992 0.87845,1.63376 0.26328,0.48384 0.77169,1.44525 1.12981,2.13646 0.35811,0.6912 0.79172,1.52065 0.96357,1.84321 0.17186,0.32256 0.60593,1.15201 0.96462,1.84322 0.66492,1.28135 2.55711,4.85526 2.97199,5.61343 0.12608,0.2304 0.57911,1.05846 1.00673,1.84012 0.42762,0.78167 0.9798,1.77114 1.22708,2.19883 0.24727,0.4277 0.66198,1.14543 0.92158,1.59497 1.19265,2.06524 2.44852,3.99874 4.08534,6.28963 2.29767,3.21583 2.65435,3.82756 2.52717,4.3343 -0.0508,0.20248 -0.24823,0.26721 -0.43093,0.14131 z"
     style="fill:#ffdd55;fill-opacity:1;stroke:#c2f0b3;stroke-width:0.0901945;stroke-linecap:round;stroke-linejoin:round;stroke-dasharray:0.0450972, 0.04509720000000000;paint-order:stroke fill markers" />
  <path
     id="path1123"
     d="m 813.53723,535.09792 c 0.12829,-1.49885 0.43279,-4.15233 0.67667,-5.89662 0.24388,-1.74429 0.4481,-4.3036 0.45383,-5.68735 0.006,-1.47366 0.39877,-3.3718 0.94789,-4.58194 1.11606,-2.45957 1.20024,-5.68516 0.2317,-8.87789 -0.38819,-1.27961 -0.7081,-3.628 -0.71092,-5.21864 -0.004,-2.23569 -0.24716,-3.23063 -1.07151,-4.38379 -0.58651,-0.82044 -1.86026,-2.6115 -2.83056,-3.98014 -2.52066,-3.55545 -3.50445,-7.70172 -2.77223,-11.68379 0.30684,-1.66873 0.8911,-3.67841 1.29836,-4.46595 1.35748,-2.62509 5.57342,-7.90332 6.30643,-7.89547 1.52081,0.0163 6.82954,8.55605 15.70122,25.25737 4.09727,7.71329 9.68676,16.46342 10.73353,16.80291 1.35632,0.43988 0.37851,-1.80113 -3.14012,-7.19673 -2.05289,-3.148 -6.3077,-10.56404 -9.45511,-16.4801 -6.08579,-11.43918 -6.82917,-12.69567 -11.02098,-18.62817 -3.32228,-4.70189 -3.75416,-5.97812 -3.75416,-11.09374 0,-3.37589 0.19367,-4.44751 1.12218,-6.20905 0.61719,-1.17094 1.27465,-3.19537 1.461,-4.49872 0.47497,-3.3219 1.89903,-6.39827 2.96177,-6.39827 1.47028,0 13.75591,15.98289 22.17991,28.85476 2.20646,3.37148 5.48613,9.18877 7.28816,12.92732 1.93604,4.0166 4.0825,7.71104 5.24684,9.03075 2.13845,2.42383 7.68599,6.3447 11.36487,8.03242 l 2.30555,1.05769 0.31074,7.37176 c 0.30743,7.29324 -0.0699,11.28272 -1.60724,16.99181 -0.60866,2.26043 -1.42648,2.56896 -5.19895,1.96142 -5.98797,-0.96433 -13.3305,-4.3001 -16.79382,-7.62956 -1.87259,-1.80021 -2.21106,-2.36512 -1.82761,-3.0503 0.56705,-1.01328 -0.20801,-3.03436 -1.16365,-3.03436 -0.74704,0 -0.82739,1.12438 -0.16834,2.35582 0.39976,0.74696 -0.19356,1.3756 -4.14703,4.39395 -2.53744,1.93726 -6.41134,4.74768 -8.60867,6.24537 -4.10063,2.79497 -14.64666,8.33242 -15.86905,8.33242 -0.54373,0 -0.63613,-0.55874 -0.4507,-2.72519 z"
     style="fill:#ffdd55;fill-opacity:1;stroke:#c2f0b3;stroke-width:0.510217;stroke-linecap:round;stroke-linejoin:round;stroke-dasharray:0.255109, 0.255109;paint-order:stroke fill markers" />
  <path
     id="path1125"
     d="m 829.82359,549.75112 c -1.85158,-0.27463 -2.13276,-0.46723 -2.13276,-1.46082 0,-1.04507 0.94689,-1.53938 10.90075,-5.69062 12.94914,-5.40041 15.73106,-6.72841 18.46266,-8.81349 1.87029,-1.42762 2.22689,-1.53307 3.88397,-1.14855 1.00354,0.23287 2.93821,0.42849 4.29927,0.43471 2.39791,0.0109 2.48698,-0.0365 2.87169,-1.52902 0.2651,-1.02852 0.7229,-1.58814 1.37776,-1.68422 0.83325,-0.12226 1.02982,0.18338 1.3071,2.03236 0.43698,2.91402 1.839,6.89481 3.52405,10.00592 l 1.38141,2.5505 -1.72888,0.45089 c -3.18295,0.83011 -13.36908,2.88252 -19.1902,3.86665 -6.02298,1.01825 -20.80193,1.60196 -24.95682,0.98569 z"
     style="fill:#ffdd55;fill-opacity:1;stroke:#c2f0b3;stroke-width:0.510217;stroke-linecap:round;stroke-linejoin:round;stroke-dasharray:0.255109, 0.255109;paint-order:stroke fill markers" />
  <path
     id="path1127"
     d="m 868.33405,529.93926 c 0,-0.0495 0.64914,-2.77493 0.7432,-3.12036 0.12666,-0.46514 0.41781,-0.72623 0.7714,-0.69174 l 0.27619,0.0269 0.18983,1.50809 c 0.10441,0.82944 0.21309,1.63551 0.24151,1.79126 0.0505,0.27651 0.0461,0.28176 -0.18456,0.22298 -0.64483,-0.16429 -0.94855,-0.14872 -1.39906,0.0717 -0.39983,0.19562 -0.63851,0.26707 -0.63851,0.19114 z"
     style="fill:#d4aa00;fill-opacity:1;stroke:#c2f0b3;stroke-width:0.0901945;stroke-linecap:round;stroke-linejoin:round;stroke-dasharray:0.0450972, 0.0450972;paint-order:stroke fill markers" />
  <path
     id="path1129"
     d="m 864.48005,532.67884 c -0.16128,-0.0171 -0.72681,-0.0721 -1.25673,-0.12225 -0.84371,-0.0798 -2.13421,-0.29083 -3.58171,-0.58567 -0.54491,-0.11099 -0.56818,-0.25327 -0.12567,-0.7684 0.1728,-0.20116 0.40844,-0.48706 0.52364,-0.63533 l 0.20945,-0.26959 0.5867,0.12434 c 1.42383,0.30175 2.34039,0.39792 4.20763,0.44149 1.34956,0.0315 2.06505,0.0154 2.33516,-0.0527 0.21419,-0.0539 0.40971,-0.0778 0.43449,-0.053 0.0619,0.0619 -0.38334,1.73816 -0.49009,1.84519 -0.0835,0.0838 -2.2288,0.14102 -2.84287,0.0759 z"
     style="fill:#d4aa00;fill-opacity:1;stroke:#c2f0b3;stroke-width:0.0901945;stroke-linecap:round;stroke-linejoin:round;stroke-dasharray:0.0450972, 0.0450972;paint-order:stroke fill markers" />
  <path
     id="path1131"
     d="m 867.59248,530.68015 c 0,-0.008 0.15912,-0.64878 0.35361,-1.4229 0.59834,-2.38163 0.93688,-3.90825 1.33139,-6.00378 0.0777,-0.41288 0.10629,-0.49133 0.17384,-0.47757 0.0451,0.009 0.0508,0.0428 0.0441,0.26135 -0.0217,0.71165 -0.39275,2.96242 -0.61333,3.72039 -0.0421,0.1445 -0.15688,0.60264 -0.25517,1.01808 -0.0983,0.41544 -0.29837,1.24236 -0.4446,1.8376 l -0.26589,1.08224 h -0.16198 c -0.0891,0 -0.16198,-0.007 -0.16198,-0.0154 z"
     style="fill:#d4aa00;fill-opacity:1;stroke:#c2f0b3;stroke-width:0.0318886;stroke-linecap:round;stroke-linejoin:round;stroke-dasharray:0.0159443, 0.0159443;paint-order:stroke fill markers" />
  <path
     id="path1133"
     d="m 869.14345,525.98965 c 0.0401,-0.15989 0.2863,-1.71493 0.34327,-2.16842 0.11383,-0.90616 0.17818,-2.05302 0.17888,-3.1881 4.3e-4,-0.70469 -0.002,-0.69609 0.18623,-0.7266 l 0.10225,-0.0166 0.0198,0.55862 c 0.0649,1.82848 0.12941,3.12774 0.22623,4.55754 0.032,0.47246 0.0582,0.88838 0.0582,0.92426 6e-5,0.0641 -0.002,0.0645 -0.14065,0.0225 -0.20528,-0.0623 -0.48176,-0.0546 -0.68203,0.019 -0.0933,0.0343 -0.20151,0.0695 -0.24052,0.0783 -0.0639,0.0145 -0.069,0.008 -0.0517,-0.0605 z"
     style="fill:#d4aa00;fill-opacity:1;stroke:#c2f0b3;stroke-width:0.0318886;stroke-linecap:round;stroke-linejoin:round;stroke-dasharray:0.0159443, 0.0159443;paint-order:stroke fill markers" />
  <path
     id="path1135"
     d="m 869.3342,522.73003 c 0.003,-0.0158 0.0202,-0.12777 0.0377,-0.24873 0.0174,-0.12096 0.0388,-0.26054 0.0475,-0.31016 0.009,-0.0496 0.0162,-0.10854 0.0167,-0.13091 4.9e-4,-0.0224 0.007,-0.0642 0.0153,-0.093 0.008,-0.0288 0.0189,-0.0948 0.0245,-0.14662 0.006,-0.0518 0.0173,-0.13667 0.0261,-0.18851 0.009,-0.0518 0.0139,-0.10022 0.0113,-0.10752 -0.003,-0.007 0.002,-0.0416 0.0113,-0.0762 0.009,-0.0346 0.0181,-0.0993 0.0205,-0.14383 0.007,-0.12971 0.0164,-0.16409 0.0458,-0.16826 l 0.0251,-0.004 -0.007,0.35441 c -0.004,0.19493 -0.01,0.41568 -0.0132,0.49056 -0.0133,0.28896 -0.0437,0.7813 -0.0486,0.78621 -0.003,0.003 -0.0265,-5.4e-4 -0.0525,-0.008 -0.0402,-0.0108 -0.0543,-0.01 -0.0934,0.005 -0.0647,0.0247 -0.0743,0.0231 -0.0672,-0.0112 z"
     style="fill:#d4aa00;fill-opacity:1;stroke:#c2f0b3;stroke-width:0.0112743;stroke-linecap:round;stroke-linejoin:round;stroke-dasharray:0.00563715, 0.00563715;paint-order:stroke fill markers" />
  <path
     id="path1137"
     d="m 841.89899,513.33696 c -0.75744,-0.95308 -2.64191,-3.63739 -3.58917,-5.11255 -2.5036,-3.89883 -4.31495,-7.13294 -8.41254,-15.02033 -5.36949,-10.33567 -7.74856,-14.32341 -11.51164,-19.29556 -1.15125,-1.52115 -2.31238,-3.16081 -2.31184,-3.26463 8.7e-4,-0.16973 0.35215,-0.60569 0.48804,-0.60569 0.10543,0 0.54835,0.53423 1.37189,1.6547 4.26562,5.80363 5.72705,8.23866 11.12524,18.5369 6.09605,11.62954 7.73569,14.45019 11.51821,19.81458 1.2178,1.72709 2.10233,3.29694 2.04001,3.62058 -0.0593,0.30802 -0.30015,0.19804 -0.7182,-0.328 z"
     style="fill:#d4aa00;fill-opacity:1;stroke:#c2f0b3;stroke-width:0.0901945;stroke-linecap:round;stroke-linejoin:round;stroke-dasharray:0.0450972, 0.0450972;paint-order:stroke fill markers" />
  <path
     id="path1141"
     d="m 342.90531,342.88185 c -13.36472,-13.38434 -14.97818,-15.33666 -14.44156,-17.47474 0.57302,-2.28305 7.87035,-9.16475 9.71828,-9.16475 0.47697,0 5.33075,4.47879 10.7862,9.95286 5.45544,5.47408 10.28741,9.95286 10.7377,9.95286 0.4503,0 11.20499,-10.23722 23.89931,-22.74939 12.69432,-12.51217 23.65316,-22.7494 24.35298,-22.7494 1.45159,0 10.20609,8.58332 10.20609,10.00654 0,1.868 -56.44073,57.29376 -58.34293,57.29376 -1.1525,0 -7.64528,-5.78335 -16.91607,-15.06774 z"
     style="fill:#ffdd55;fill-opacity:1;stroke:#c2f0b3;stroke-width:1.02043;stroke-linecap:round;stroke-linejoin:round;stroke-dasharray:0.510217, 0.510217;paint-order:stroke fill markers" />
  <path
     id="path1175"
     d="m 928.41045,742.53442 c 0,-0.7062 -2.86537,-2.9413 -6.36748,-4.96686 -10.39886,-6.01455 -17.86347,-12.76565 -17.02741,-15.39986 0.45766,-1.44195 -0.22916,-2.8313 -1.82075,-3.68309 -4.96475,-2.65706 -7.17727,-7.80496 -6.18846,-14.39882 0.82565,-5.50579 1.21967,-6.03383 4.09258,-5.48463 1.74844,0.33423 4.15721,-0.10765 5.35283,-0.98187 1.87919,-1.3741 1.96892,-2.54509 0.66196,-8.63922 -1.67652,-7.81736 -1.21754,-9.50665 2.58301,-9.50665 1.64964,0 2.88777,1.24065 3.44204,3.44907 1.86855,7.44486 13.93116,6.31783 13.93116,-1.30162 0,-5.85222 -1.62463,-11.33052 -4.17056,-14.06325 -3.09211,-3.31898 -3.1476,-4.66584 -0.36709,-8.90944 2.78064,-4.2438 3.87887,-4.16029 9.43428,0.71742 2.51917,2.21186 6.0674,4.02157 7.88496,4.02157 8.32053,0 11.88249,-12.02164 5.13466,-17.32948 -1.94265,-1.52809 -5.26044,-2.77834 -7.37287,-2.77834 -4.43652,0 -4.90203,-2.10247 -1.79557,-8.1097 2.5876,-5.00387 5.13737,-4.98829 10.89455,0.0666 5.17345,4.54235 7.03738,4.85121 12.43427,2.06036 9.96555,-5.15338 4.92558,-18.25443 -7.80565,-20.29024 -3.04008,-0.48612 -5.50369,-1.63018 -5.50369,-2.55581 0,-1.49431 3.73413,-11.44334 4.67624,-12.45916 0.20511,-0.22115 4.09521,0.85187 8.64468,2.38447 7.09463,2.39001 8.78609,2.54126 11.88602,1.06283 2.76659,-1.31946 3.69632,-2.8219 3.96413,-6.40604 0.19243,-2.57526 -0.18202,-5.49658 -0.83211,-6.49182 -1.63895,-2.50913 -9.23421,-3.882 -15.38364,-2.78067 -4.78553,0.85707 -5.08729,0.72294 -4.35598,-1.9363 0.43216,-1.57144 1.16414,-5.11929 1.62662,-7.88411 0.95759,-5.72475 1.07567,-5.76908 7.83917,-2.94311 7.23024,3.02098 14.22577,2.10462 16.6173,-2.17674 2.5628,-4.58799 1.03056,-10.29717 -3.29219,-12.26674 -2.49573,-1.13713 -5.2251,-1.16356 -10.35206,-0.10023 -3.82949,0.79423 -7.05871,1.35887 -7.17605,1.25475 -0.11733,-0.10412 0.10439,-2.98777 0.49271,-6.4081 l 0.70605,-6.21878 5.21539,0.69953 c 6.37118,0.85455 16.68335,-2.77989 18.72812,-6.60058 0.79156,-1.47905 1.08539,-4.0989 0.65295,-5.82189 -1.86381,-7.42599 -8.94591,-9.46372 -16.19823,-4.6607 -5.77175,3.82248 -7.37286,3.40962 -7.37286,-1.90114 0,-7.46242 1.06237,-8.82303 6.88908,-8.82303 5.69395,0 14.50493,-3.13323 16.1674,-5.74921 0.56751,-0.89301 1.04108,-3.28255 1.05237,-5.31009 0.0271,-4.8684 3.35392,-4.85043 10.20843,0.0552 8.15384,5.83551 17.90934,11.64641 46.02434,27.41467 14.3277,8.03571 31.5199,18.33634 38.2048,22.89029 37.0354,25.22956 52.5584,55.59299 45.7477,89.48381 -3.0854,15.35276 -9.5145,28.21037 -19.6208,39.23968 -25.6985,28.04534 -66.3698,41.20424 -153.90965,49.79625 -24.36099,2.39102 -24.2767,2.38844 -24.2767,0.74088 z"
     style="fill:#d5f6ff;fill-opacity:1;stroke:#c2f0b3;stroke-width:1.44311;stroke-linecap:round;stroke-linejoin:round;stroke-dasharray:0.721556, 0.721556;paint-order:stroke fill markers" />
  <path
     id="path1177"
     d="m 457.88754,754.21119 c -0.36864,-0.35149 -17.95986,-1.02892 -39.09159,-1.50541 -74.38276,-1.67722 -159.2985,-7.67381 -203.42477,-14.36549 C 103.98312,721.44846 28.979285,682.83401 7.2906674,631.21355 -4.7327679,602.59691 0.39329995,565.27661 21.442667,528.18002 c 9.250185,-16.30217 13.997619,-23.50499 34.066394,-51.68568 27.021846,-37.94424 38.99019,-58.57216 49.801619,-85.83509 8.5541,-21.57068 12.37456,-39.63288 13.08992,-61.88603 1.24413,-38.70162 -5.34122,-57.1477 -34.152841,-95.66479 C 62.478425,204.00591 57.847331,191.14869 57.922259,160.02149 58.033524,113.79986 71.934811,64.796645 91.842265,40.450605 121.3064,4.4171135 173.67336,-7.410842 245.08051,5.8391806 c 46.84522,8.6924114 84.67014,20.9432874 181.30478,58.7216604 90.01388,35.190048 132.06408,47.996199 183.90038,56.005819 23.4716,3.62677 68.62303,4.9448 90.85881,2.65229 32.75858,-3.37742 65.97665,-12.59342 91.97489,-25.517434 16.8164,-8.359629 27.48665,-15.822643 42.69905,-29.864671 17.92186,-16.543044 38.19674,-27.208188 61.76004,-32.487493 15.61983,-3.499587 49.02423,-4.18801 65.94292,-1.359001 45.21282,7.560113 81.40062,28.049904 104.94442,59.420117 10.8314,14.432042 15.5569,23.240152 20.6698,38.527202 8.3726,25.03305 8.1995,48.84611 -0.5465,75.20491 -9.1794,27.66475 -23.6203,50.81911 -58.8156,94.30389 -12.2331,15.11437 -28.3499,35.52513 -35.81503,45.35725 -12.98197,17.09822 -30.69447,44.72666 -30.69447,47.87808 0,0.93333 -3.02124,1.49483 -8.04313,1.49483 -5.48112,0 -8.04313,-0.52642 -8.04313,-1.65266 0,-0.90895 2.11726,-4.79888 4.70502,-8.64427 5.58663,-8.30171 6.91725,-12.69903 4.66418,-15.41381 -2.11135,-2.54401 -4.56767,-2.53762 -6.68815,0.0174 -2.14881,2.58915 -6.19416,2.58826 -7.18799,-0.001 -0.42471,-1.1068 0.7325,-4.22968 2.57161,-6.93975 6.10409,-8.99488 6.20461,-15.58422 0.24822,-16.27171 -4.42513,-0.51075 -4.71381,-3.06513 -0.94464,-8.35844 4.09787,-5.75491 8.30351,-15.95751 7.47158,-18.1255 -0.83863,-2.18545 -5.60746,-2.58403 -6.85061,-0.57258 -0.45567,0.73729 -1.99936,1.34053 -3.43042,1.34053 -2.2519,-2.5e-4 -2.60192,-0.96675 -2.60192,-7.18474 0,-7.10671 0.0763,-7.24135 7.03773,-12.43422 7.86201,-5.86456 9.09542,-9.23198 3.3513,-9.14965 -5.3268,0.0764 -4.80127,-3.42824 2.40623,-16.04653 5.70761,-9.99242 6.78984,-15.06986 2.95515,-13.8645 -1.66034,0.52189 -4.27089,5.26748 -11.07867,20.13941 -2.544,5.55752 -4.26063,7.708 -6.15293,7.708 -3.72824,0 -4.38835,2.9324 -2.32453,10.32613 0.98722,3.53671 1.49332,9.14494 1.12467,12.46273 -0.59469,5.35224 -1.04602,6.03234 -4.00319,6.03234 -2.16422,0 -3.49866,0.86042 -3.80549,2.45369 -0.64715,3.36035 3.45034,15.46258 6.58402,19.44642 4.00667,5.09366 3.37162,7.19387 -1.87748,6.20913 -3.14632,-0.59026 -4.93884,-0.23559 -6.14309,1.21545 -2.504,3.01714 -0.7274,6.79335 5.96946,12.68816 6.9505,6.11808 9.62885,13.61878 4.86298,13.61878 -1.52322,0 -3.14232,-0.60324 -3.59799,-1.34052 -0.45567,-0.73729 -2.26032,-1.34052 -4.01034,-1.34052 -8.0442,0 -3.62923,10.98273 7.33055,18.23557 3.55605,2.35329 5.29084,4.58882 5.69434,7.338 l 0.58027,3.95368 -6.80818,-0.35302 c -6.43299,-0.33358 -6.83043,-0.16186 -7.21139,3.11593 -0.30525,2.62639 0.90753,4.65312 4.99316,8.34424 2.96799,2.6814 6.85852,5.24225 8.64562,5.69079 2.33268,0.58546 3.41617,1.95262 3.84091,4.84652 0.54423,3.70811 0.31352,3.98283 -2.88036,3.42966 -1.90958,-0.33075 -4.481,-1.03493 -5.71423,-1.56485 -2.27944,-0.97946 -7.81165,3.22905 -7.81165,5.94254 0,2.09663 9.30535,11.86304 12.16897,12.77191 1.41721,0.44982 2.57676,1.96857 2.57676,3.37503 0,2.09359 -0.68931,2.41934 -3.80213,1.79677 -4.22441,-0.84489 -8.26256,2.0905 -8.26256,6.00618 0,2.45988 8.96931,11.61482 15.08086,15.39299 2.07039,1.2799 3.68644,3.47671 3.68644,5.01123 0,2.45708 -0.57692,2.64576 -5.72813,1.87328 -4.70725,-0.70589 -6.1599,-0.38187 -8.15084,1.8181 -3.75548,4.14977 -2.25938,8.36295 4.83045,13.60302 7.35856,5.43868 8.74544,10.13829 2.59309,8.787 -9.32598,-2.04832 -15.01806,10.64345 -7.44504,16.60039 4.4808,3.52459 12.80014,5.79117 17.20154,4.68649 3.27312,-0.8215 3.40153,-0.62052 3.40153,5.32393 0,7.44788 -1.96013,7.97086 -9.71991,2.59333 -4.24443,-2.94138 -5.81291,-3.35901 -8.74398,-2.32822 -1.96447,0.69088 -4.49528,2.90706 -5.62402,4.92486 -1.83779,3.28537 -1.83928,4.05397 -0.0144,7.35518 2.61879,4.7371 9.89702,8.37352 16.76479,8.37618 l 5.3975,0.003 -0.52088,5.46183 c -0.62853,6.59075 -2.80128,7.72566 -7.83625,4.09317 -6.42302,-4.63391 -10.53824,-4.92782 -14.43512,-1.03094 -4.07761,4.07761 -4.32585,7.4849 -0.85751,11.77038 2.20851,2.72882 3.74162,3.16468 11.1317,3.16468 h 8.57045 l -1.27902,6.48676 c -0.70345,3.56772 -2.0702,6.79037 -3.03722,7.16146 -0.96701,0.37107 -5.019,-0.92067 -9.00441,-2.87056 -10.56242,-5.1677 -16.98588,-2.76516 -16.98588,6.35322 0,5.74614 4.5394,8.32873 14.64886,8.33418 l 9.01599,0.005 -2.08551,6.52736 c -1.14703,3.59003 -2.77436,6.79168 -3.61627,7.11475 -0.84192,0.32308 -3.80412,-0.95534 -6.58267,-2.84092 -9.18493,-6.23422 -19.42348,-3.17333 -19.42348,5.80569 0,6.80225 3.87519,9.92379 13.15283,10.59487 l 8.18951,0.59237 -2.65529,5.2048 c -3.01583,5.91151 -4.74376,6.31068 -10.94666,2.52878 -8.4399,-5.14582 -17.12404,-1.79861 -17.12404,6.60029 0,4.4417 5.2366,9.46772 9.89956,9.50147 5.89778,0.0428 6.8323,1.96971 3.53924,7.298 -2.24687,3.63549 -3.60214,4.65092 -5.22056,3.91148 -1.20225,-0.54929 -5.35288,-1.24527 -9.22363,-1.5466 l -7.03774,-0.54789 V 419.82598 c 0,-262.76444 0.55963,-245.12582 -7.93649,-250.14461 -3.62025,-2.13854 -24.72753,-2.28701 -325.12127,-2.28701 -284.52661,0 -321.6992,0.23244 -325.18198,2.03347 -8.47241,4.38126 -7.99925,-5.44582 -7.99925,166.13536 0,176.86218 1.15245,161.78962 -11.39559,149.03948 -8.28512,-8.41855 -15.94961,-11.57588 -28.05345,-11.5564 -27.02146,0.0434 -45.16733,29.63842 -32.9073,53.67007 2.5647,5.02722 2.78379,6.50052 1.4803,9.95389 -1.00001,2.6493 -1.06253,4.20911 -0.18051,4.50312 2.58645,0.86215 1.41916,4.01519 -1.22999,3.32242 -2.1845,-0.57126 -2.72092,0.26895 -3.50351,5.48759 -1.22577,8.17397 0.18162,16.78539 3.88908,23.79631 l 3.02718,5.72448 -3.43282,6.08256 c -2.84853,5.04725 -3.42811,7.79386 -3.4051,16.13649 0.0456,16.5057 7.05275,27.60232 21.75574,34.4523 6.0504,2.81883 7.05788,3.82923 7.18136,7.20212 0.18599,5.08073 0.18599,30.74661 0,36.57443 l -0.14363,4.50019 -13.08722,0.90136 c -24.33513,1.67606 -44.55519,7.14005 -44.55519,12.04 0,2.30379 3.66167,5.37375 8.71339,7.30534 13.36037,5.10852 55.75016,8.13358 81.10153,5.78765 15.31854,-1.41753 15.43294,-1.40676 18.09703,1.70512 1.47458,1.72241 3.99867,3.81232 5.60909,4.64423 2.14779,1.10952 80.77864,1.51259 295.07536,1.51259 H 827.5225 l 1.44574,7.708 c 0.79515,4.2394 1.84116,11.12191 2.32446,15.29449 l 0.87874,7.58648 -21.80381,0.17601 c -11.99208,0.0968 -22.15893,0.38674 -22.593,0.6443 -0.43407,0.25757 -22.50565,0.89858 -49.04797,1.42447 -26.54232,0.5259 -50.06846,1.20565 -52.28032,1.51056 -5.83207,0.804 -227.76182,2.27829 -228.55885,1.51835 z"
     style="fill:#d5f6ff;fill-opacity:1;stroke:#c2f0b3;stroke-width:1.44311;stroke-linecap:round;stroke-linejoin:round;stroke-dasharray:0.721556, 0.721556;paint-order:stroke fill markers" />
  <path
     id="path1179"
     d="m 1042.5174,498.27659 c -3.8013,-1.88156 -7.2606,-5.06985 -9.8166,-9.04746 -3.5015,-5.44893 -3.8912,-7.0819 -3.4536,-14.47045 0.4072,-6.87382 1.21,-9.21509 4.5966,-13.40521 5.8825,-7.27798 11.3987,-10.10377 19.7235,-10.10377 14.6722,0 24.9815,10.43061 24.9815,25.27544 0,6.33039 -3.3692,14.40144 -7.6144,18.24037 -7.3465,6.64351 -19.1439,8.10114 -28.417,3.51108 z"
     style="fill:#d5f6ff;fill-opacity:1;stroke:#c2f0b3;stroke-width:1.44311;stroke-linecap:round;stroke-linejoin:round;stroke-dasharray:0.721556, 0.721556;paint-order:stroke fill markers" />
  <path
     id="path1181"
     d="m 1023.1325,430.65651 c -7.4601,-7.46016 -5.5797,-19.43537 3.7469,-23.86113 11.6232,-5.51559 23.4617,4.65972 20.2605,17.41421 -2.457,9.78951 -16.8103,13.64395 -24.0074,6.44692 z"
     style="fill:#d5f6ff;fill-opacity:1;stroke:#c2f0b3;stroke-width:1.44311;stroke-linecap:round;stroke-linejoin:round;stroke-dasharray:0.721556, 0.721556;paint-order:stroke fill markers" />
  <path
     id="path1183"
     d="m 1076.538,374.36349 c -6.4712,-3.5327 -9.8367,-7.24343 -12.2131,-13.46598 -6.1924,-16.21461 5.9757,-33.98114 23.2733,-33.98114 24.5132,0 34.3829,31.70365 14.1793,45.54733 -6.1501,4.21415 -19.2006,5.19647 -25.2395,1.89979 z"
     style="fill:#d5f6ff;fill-opacity:1;stroke:#c2f0b3;stroke-width:1.44311;stroke-linecap:round;stroke-linejoin:round;stroke-dasharray:0.721556, 0.721556;paint-order:stroke fill markers" />
</svg>
