<?xml version="1.0" encoding="UTF-8" standalone="no"?>
<svg
   xmlns:dc="http://purl.org/dc/elements/1.1/"
   xmlns:cc="http://creativecommons.org/ns#"
   xmlns:rdf="http://www.w3.org/1999/02/22-rdf-syntax-ns#"
   xmlns:svg="http://www.w3.org/2000/svg"
   xmlns="http://www.w3.org/2000/svg"
   xmlns:sodipodi="http://sodipodi.sourceforge.net/DTD/sodipodi-0.dtd"
   xmlns:inkscape="http://www.inkscape.org/namespaces/inkscape"
   inkscape:version="1.0 (4035a4fb49, 2020-05-01)"
   sodipodi:docname="shopping_girl.svg"
   version="1.1"
   viewBox="0 0 1074 739"
   height="739"
   width="1074"
   data-name="Layer 1"
   id="c9533a1a-3341-4132-b58a-1916f0ec6876">
  <metadata
     id="metadata204">
    <rdf:RDF>
      <cc:Work
         rdf:about="">
        <dc:format>image/svg+xml</dc:format>
        <dc:type
           rdf:resource="http://purl.org/dc/dcmitype/StillImage" />
      </cc:Work>
    </rdf:RDF>
  </metadata>
  <sodipodi:namedview
     inkscape:current-layer="c9533a1a-3341-4132-b58a-1916f0ec6876"
     inkscape:window-maximized="1"
     inkscape:window-y="-9"
     inkscape:window-x="-9"
     inkscape:cy="289.68326"
     inkscape:cx="382.36787"
     inkscape:zoom="0.56156969"
     showgrid="false"
     id="namedview202"
     inkscape:window-height="1001"
     inkscape:window-width="1920"
     inkscape:pageshadow="2"
     inkscape:pageopacity="0"
     guidetolerance="10"
     gridtolerance="10"
     objecttolerance="10"
     borderopacity="1"
     bordercolor="#666666"
     pagecolor="#ffffff" />
  <defs
     id="defs9">
    <linearGradient
       gradientUnits="userSpaceOnUse"
       y2="80.5"
       x2="607.35"
       y1="789.64"
       x1="607.35"
       id="cf277671-cf0a-49c3-95f9-02fb51e7bec0">
      <stop
         id="stop2"
         stop-opacity="0.25"
         stop-color="gray"
         offset="0" />
      <stop
         id="stop4"
         stop-opacity="0.12"
         stop-color="gray"
         offset="0.54" />
      <stop
         id="stop6"
         stop-opacity="0.1"
         stop-color="gray"
         offset="1" />
    </linearGradient>
  </defs>
  <title
     id="title11">successful purchase</title>
  <rect
     id="rect13"
     opacity="0.1"
     fill="#6c63ff"
     ry="5.17"
     rx="5.17"
     height="30"
     width="80"
     y="77"
     x="330" />
  <rect
     id="rect15"
     opacity="0.1"
     fill="#6c63ff"
     ry="5.17"
     rx="5.17"
     height="30"
     width="80"
     y="50"
     x="568" />
  <rect
     id="rect17"
     opacity="0.1"
     fill="#6c63ff"
     ry="5.17"
     rx="5.17"
     height="30"
     width="80"
     y="355"
     x="524" />
  <rect
     id="rect19"
     opacity="0.1"
     fill="#6c63ff"
     ry="5.17"
     rx="5.17"
     height="30"
     width="80"
     y="388"
     x="560" />
  <rect
     id="rect21"
     opacity="0.1"
     fill="#6c63ff"
     ry="5.17"
     rx="5.17"
     height="30"
     width="80"
     y="373"
     x="774" />
  <rect
     id="rect23"
     opacity="0.1"
     fill="#6c63ff"
     ry="5.17"
     rx="5.17"
     height="30"
     width="80"
     y="397"
     x="123" />
  <rect
     id="rect25"
     opacity="0.1"
     fill="#6c63ff"
     ry="5.17"
     rx="5.17"
     height="30"
     width="80"
     y="421"
     x="499" />
  <path
     id="path27"
     fill="url(#cf277671-cf0a-49c3-95f9-02fb51e7bec0)"
     transform="translate(-63 -80.5)"
     d="M781.91,262.71,745.25,156.29l-13.18,2-11.8,1.51c.3-4,.82-18.36-6.5-25.89-.71-2.58-2.58-5.51-6.18-8.81-17.54-16.08-21.19,16.81-21.19,16.81s-4,6.94-9.51,16.64L674,158l-.82,7.16c-12.2,21.57-28.41,50.76-28.41,53.5,0,4.39-2.19,10.23-2.19,10.23s-12.42,20.46-16.81,30.7a49.09,49.09,0,0,1-11,16.08s-1.06.81-2.8,2a25,25,0,0,1,1-5.71c1.6-5.23,5.32-9.71,6.31-15.09a17.62,17.62,0,0,0,.26-3.91c.23-6.31-2.84-12.52-4.12-18.83-1.49-7.31-.69-15.36-4.59-21.71-3-4.85-8.32-7.87-13.85-9.26-5.08-1.27-10.08-.82-15.2-1.36-4.7-.5-9.19-2.58-13.89-3.35a17.93,17.93,0,0,0-7.62,0c-7.95,2.19-10.44,12.21-16.58,17.72-2.21,2-4.92,3.38-6.92,5.57-2.91,3.19-3.92,7.64-3.77,12a25.56,25.56,0,0,0,.26,4.37c.76,5.23,2.78,10.18,4,15.31a53,53,0,0,1,1.49,11.59c0,.88,0,1.76-.08,2.63a9.23,9.23,0,0,1-1.35,5c-1.11,1.53-2.94,2.27-4.57,3.25a35.45,35.45,0,0,1-11.52-16.34s-.27.34-.73,1v-1s-10-14.68-11.52-26.67l3.48.36,8-112.55-20.43-3c-.57-5.81-2.12-14.24-6.23-20.39,3.43-6.76,5.16-15.91-9.88-16.82-17.6-1.07-16.52,12.64-14.65,20.14a50.45,50.45,0,0,0-1,12.45l-18-2.62-.1,1.46h-4.28L432.79,226.73l11.16-.56,40.9,4.26c3.27,29.73,8.41,66.47,14.51,75.13a7.39,7.39,0,0,0,.67.83V359s-.73,68-13.16,78.93a65,65,0,0,1,23.78-3.73c-.14.45-.28.93-.42,1.44a127.58,127.58,0,0,0-3.79,20.48q-.26,2.29-.47,4.78a257.87,257.87,0,0,0,.63,45.73c5.12,54.08,13.16,92.82,13.16,92.82L522,630.89s-2.19,53.35,3.65,70.89a26.47,26.47,0,0,0,7.48,4.85c.05.5.11,1,.16,1.53s.13,1.35.2,2.05c-2.62,1.19-7.51,5.91-8.57,24.45,0,0,1.46,13.89-2.19,20.46s-1.46,25.58,9.5,27.77a58.57,58.57,0,0,0,21.19,0s5.12,0,1.46-18.27l-.64-4.68c-.08-9.05.3-18.74,2.1-21.63,3.65-5.85-1.46-11.69-1.46-11.69s-.36.2-.95.47c-.94-5.05-2.17-13.25-1.73-19.51,0-.53.09-1,.15-1.55a30.78,30.78,0,0,0,6.19-4.27V632.35s-.73-106.7,7.31-108.9c0,0,3.65,38.73,2.19,57.74s2.19,39.47,2.19,39.47l1.46,77.47s1.4.67,3.66,1.46l-.15,1.41c-.89,8.61-2.32,21.61-3.62,29.57a5.88,5.88,0,0,0-3.55,4.1c-2.19,7.31-.73,25.58-5.12,30.7-2.59,3-5.69,9.11-4.17,13.43-.95,3.79-.53,9.71,10.75,10.69,16.81,1.46,24.12-7.31,24.12-7.31s2.19-3.65,0-10.23.73-18.27.73-18.27,1.57-9.92-1-11.22c-.22-1.18-.42-1.93-.42-1.93a8.8,8.8,0,0,0-2.31-6.08c-.06-7.65.25-21.8,2.94-31.12.16-.53.32-1,.49-1.55a19.74,19.74,0,0,0,6.18-2.17s-.73-16.81,4.39-28.5,2.19-58.47,2.19-58.47-2.19-12.29.9-22.25a218.32,218.32,0,0,0,7.94-33.8l4.31-30.19s11.35-36.75-3.6-74.47c-.61-1.56-1.28-3.12-2-4.68-1.24-2.71-2.62-5.43-4.16-8.13-.24-.42-.5-.85-.75-1.27,1.57-.39,2.46-.62,2.46-.62s-19.73-46-7.31-69.43c0,0,7-7,8-14.69,1.24-10.17,2.59-20.33,4.81-30.33l.39-1.76s.06-.34.16-.95c.28-.18.55-.37.82-.57,21.06-15.38,39.22-79.6,39.22-79.6l5.85-11,2.78-5.88-5.7,49.73,44.58,11,28.5-2.19-.08-6.13,21.72-1.69Zm-282.6-145-7.92-1.16c-1.39-7.15-2.33-11.84-2.33-11.84a43.44,43.44,0,0,0,4.39-6.57C497.28,104,498.75,112,499.31,117.67Zm-29.58-15.35c.55,1.88,1.05,3.09,1.05,3.09l1,8.25-2.7-.39A54.19,54.19,0,0,1,469.74,102.32Zm249.8,57.61-10.72,1.38c1.51-4.44,3.38-11.72,2.29-18.31a9.19,9.19,0,0,0,2.94-7.65C720.41,143,719.81,156.44,719.53,159.94Zm-17.8-11.41a26.56,26.56,0,0,0,8.73-4.91c.92,6.47-1,13.58-2.46,17.8l-10,1.28-2.76-.53Z" />
  <polygon
     id="polygon29"
     fill="#6c63ff"
     points="717 184.1 690.91 194.99 660.6 89.3 667.71 80.86 680.74 78.84 717 184.1" />
  <polygon
     id="polygon31"
     opacity="0.2"
     fill="#fff"
     points="717 184.1 690.91 194.99 660.6 89.3 667.71 80.86 680.74 78.84 717 184.1" />
  <polygon
     id="polygon33"
     fill="#6c63ff"
     points="667.71 80.86 622.43 86.67 645.64 198.51 690.91 194.99 667.71 80.86" />
  <polygon
     id="polygon35"
     opacity="0.07"
     fill="#fff"
     points="667.71 80.86 622.43 86.67 645.64 198.51 690.91 194.99 667.71 80.86" />
  <path
     id="path37"
     fill="#535461"
     transform="translate(-63 -80.5)"
     d="M718.94,163.88l-.72-.09c0-.27,3-26.67-13.57-30l.14-.71C722.07,136.55,719,163.61,718.94,163.88Z" />
  <rect
     id="rect39"
     fill="#774e55"
     height="73.01"
     width="49.88"
     y="160.44"
     x="488.44" />
  <rect
     id="rect41"
     opacity="0.2"
     height="73.01"
     width="49.88"
     y="160.44"
     x="488.44" />
  <polygon
     id="polygon43"
     fill="#6c63ff"
     points="669.51 202.72 641.32 204.89 645.66 95.02 655.05 89.24 668.06 91.41 669.51 202.72" />
  <polygon
     id="polygon45"
     opacity="0.2"
     points="669.51 202.72 641.32 204.89 645.66 95.02 655.05 89.24 668.06 91.41 669.51 202.72" />
  <polygon
     id="polygon47"
     fill="#6c63ff"
     points="655.05 89.24 610.24 80.56 597.23 194.05 641.32 204.89 655.05 89.24" />
  <polygon
     id="polygon49"
     fill="#6c63ff"
     points="391.22 35.03 384.71 35.03 371.7 148.51 400.61 147.07 391.22 35.03" />
  <polygon
     id="polygon51"
     opacity="0.2"
     points="391.22 35.03 384.71 35.03 371.7 148.51 400.61 147.07 391.22 35.03" />
  <polygon
     id="polygon53"
     fill="#6c63ff"
     points="389.05 33.58 381.1 147.79 450.49 155.02 458.44 43.7 389.05 33.58" />
  <path
     id="path55"
     fill="#5c3d53"
     transform="translate(-63 -80.5)"
     d="M535.9,706.81s-8.67-.72-10.12,24.58c0,0,1.45,13.73-2.17,20.24s-1.45,25.3,9.4,27.47a57.93,57.93,0,0,0,21,0s5.06,0,1.45-18.07l-7.23-52.77Z" />
  <path
     id="path57"
     opacity="0.05"
     transform="translate(-63 -80.5)"
     d="M535.9,706.81s-8.67-.72-10.12,24.58c0,0,1.45,13.73-2.17,20.24s-1.45,25.3,9.4,27.47a57.93,57.93,0,0,0,21,0s5.06,0,1.45-18.07l-7.23-52.77Z" />
  <path
     id="path59"
     fill="#f8bdc5"
     transform="translate(-63 -80.5)"
     d="M581.35,289.4c-.62,10.76,1.53,17,1.53,17l-18.79,5.06s-31.08,4.34-18.79-8c4.25-4.25,6.34-11.54,7.25-19.24a106.62,106.62,0,0,0,.53-15.84,141.2,141.2,0,0,0-1.28-14.8s45.54-15.9,35.42,10.12a92.54,92.54,0,0,0-4.35,14.5A76.45,76.45,0,0,0,581.35,289.4Z" />
  <path
     id="path61"
     opacity="0.1"
     transform="translate(-63 -80.5)"
     d="M587.22,263.71a92.54,92.54,0,0,0-4.35,14.5,31.14,31.14,0,0,1-29.79-9.82,141.2,141.2,0,0,0-1.28-14.8S597.34,237.69,587.22,263.71Z" />
  <circle
     id="circle63"
     fill="#f8bdc5"
     r="31.08"
     cy="165.86"
     cx="513.38" />
  <path
     id="path65"
     fill="#f8bdc5"
     transform="translate(-63 -80.5)"
     d="M521.44,261.54v9.4l-15.9,41.2-4.34-4.34a7.3,7.3,0,0,1-.66-.82c-10.5-14.92-18.14-114.11-18.14-114.11L472.29,109s-10.84-26,13-24.58,5.06,23.85,5.06,23.85,15.9,79.51,13.73,82.4,0,11.57,0,11.57,6.51,16.63,5.78,28.91S521.44,261.54,521.44,261.54Z" />
  <path
     id="path67"
     fill="#f8bdc5"
     transform="translate(-63 -80.5)"
     d="M700.7,151.67l-37.59,79.51L657.33,242s-18,63.52-38.79,78.73a19,19,0,0,1-3.86,2.23l-4.34-34.7,4-10.08.3-.77a48.55,48.55,0,0,0,10.84-15.9c4.34-10.12,16.63-30.36,16.63-30.36s2.17-5.78,2.17-10.12,41.2-75.9,41.2-75.9,3.61-32.53,21-16.63S700.7,151.67,700.7,151.67Z" />
  <path
     id="path69"
     fill="#f8bdc5"
     transform="translate(-63 -80.5)"
     d="M555.41,728.49s-24.58,10.12-21.69.72c1.76-5.7,1.11-16.47.33-24-.5-4.91-1.06-8.49-1.06-8.49l21,2.17a17,17,0,0,0-1.21,5.75C552.09,714.23,555.41,728.49,555.41,728.49Z" />
  <path
     id="path71"
     fill="#f8bdc5"
     transform="translate(-63 -80.5)"
     d="M593.63,700.37c-3.79,13.16-2.8,36.08-2.8,36.08s-22.41,2.89-20.24-2.89c1.51-4,3.72-23.82,4.92-35.47.53-5.09.86-8.62.86-8.62l20.24,4.34A20.22,20.22,0,0,0,593.63,700.37Z" />
  <path
     id="path73"
     opacity="0.1"
     transform="translate(-63 -80.5)"
     d="M533,696.69l21,2.17a17,17,0,0,0-1.21,5.75,21.43,21.43,0,0,1-18.7.57C533.56,700.26,533,696.69,533,696.69Z" />
  <path
     id="path75"
     opacity="0.1"
     transform="translate(-63 -80.5)"
     d="M596.62,693.8a20.22,20.22,0,0,0-3,6.57c-6.83,1.1-14-.83-18.11-2.28.53-5.09.86-8.62.86-8.62Z" />
  <path
     style="fill:#162d50;fill-opacity:1"
     id="path77"
     fill="#5e52ad"
     transform="translate(-63 -80.5)"
     d="M619.75,525.37l-4.26,29.86a215.92,215.92,0,0,1-7.86,33.43c-3.06,9.85-.89,22-.89,22s2.89,46.26-2.17,57.83-4.34,28.19-4.34,28.19c-11.57,6.51-28.19-1.45-28.19-1.45l-1.45-76.62s-3.61-20.24-2.17-39-2.17-57.1-2.17-57.1c-8,2.17-7.23,107.7-7.23,107.7v68.67c-17.35,15.18-32.53,0-32.53,0-5.78-17.35-3.61-70.12-3.61-70.12l-2.17-31.08s-8-38.31-13-91.8a255,255,0,0,1-.62-45.23q.21-2.46.46-4.73a126.18,126.18,0,0,1,3.74-20.25,45.58,45.58,0,0,1,2.2-6.41l77.67,3.61,4.58.21,11,.51c1.2,1.81,2.33,3.65,3.38,5.49,1.52,2.67,2.89,5.36,4.11,8,.7,1.54,1.36,3.09,2,4.63C631,489,619.75,525.37,619.75,525.37Z" />
  <path
     id="path79"
     opacity="0.1"
     transform="translate(-63 -80.5)"
     d="M534.45,436.47s-3.4,34-27.37,24.16q.21-2.46.46-4.73c5.64,1.53,21.25,3.64,21.84-19.44Z" />
  <path
     id="path81"
     opacity="0.1"
     transform="translate(-63 -80.5)"
     d="M616.19,451.72c-16.6,5.93-22.86-9.86-25-18.87l4.58.21c2.49,14.17,12.43,15,18.48,14C614.93,448.64,615.58,450.19,616.19,451.72Z" />
  <path
     id="path83"
     fill="#5c3d53"
     transform="translate(-63 -80.5)"
     d="M542.34,724.65c-3.69-.58-9.33-2.61-7.56-9.7,0,0-6.83-2.36-6.11,25.83,0,0-.72,13.73-2.17,16.63s0,20.24,15.18,18.79c0,0,10.84,3.61,13.73-2.17,0,0-2.17-33.25,1.45-39s-1.45-11.57-1.45-11.57-5.12,2.84-8.8,2C545.21,725.07,543.77,724.88,542.34,724.65Z" />
  <path
     id="path85"
     fill="#5c3d53"
     transform="translate(-63 -80.5)"
     d="M560.47,771.86s-7.23,12.29,9.4,13.73,23.85-7.23,23.85-7.23,2.17-3.61,0-10.12.72-18.07.72-18.07,2.17-13.73-2.89-10.84S560.47,771.86,560.47,771.86Z" />
  <path
     id="path87"
     opacity="0.05"
     transform="translate(-63 -80.5)"
     d="M560.47,771.86s-7.23,12.29,9.4,13.73,23.85-7.23,23.85-7.23,2.17-3.61,0-10.12.72-18.07.72-18.07,2.17-13.73-2.89-10.84S560.47,771.86,560.47,771.86Z" />
  <path
     id="path89"
     fill="#5c3d53"
     transform="translate(-63 -80.5)"
     d="M579.27,727.77s-8.67-3.61-10.84,3.61-.72,25.3-5.06,30.36-10.12,18.79,7.23,18.07,21-6.51,21-6.51-.72-18.07,1.45-23.13,0-13,0-13S593.72,727,579.27,727.77Z" />
  <circle
     id="circle91"
     opacity="0.2"
     r="1.45"
     cy="43.7"
     cx="407.84" />
  <circle
     id="circle93"
     opacity="0.2"
     r="1.45"
     cy="47.31"
     cx="438.2" />
  <path
     id="path95"
     fill="#535461"
     transform="translate(-63 -80.5)"
     d="M501.56,127.82l-.72,0c0-.31.51-30.8-17-33.61-3.45-.55-6.27.23-8.38,2.32-7.23,7.17-4.24,27.42-4.21,27.62l-.71.11c-.13-.85-3.07-20.82,4.42-28.24,2.28-2.27,5.32-3.12,9-2.53C502.08,96.39,501.57,127.51,501.56,127.82Z" />
  <path
     id="path97"
     fill="#535461"
     transform="translate(-63 -80.5)"
     d="M706.09,168.45l-.65-.31c.11-.24,11.25-24.37-3.47-32.78l.36-.63C717.62,143.47,706.21,168.2,706.09,168.45Z" />
  <path
     id="path99"
     opacity="0.1"
     transform="translate(-63 -80.5)"
     d="M582.88,306.36l-18.79,5.06s-31.08,4.34-18.79-8c4.25-4.25,6.34-11.54,7.25-19.24,4.91,7.7,10.82,5.51,10.82,5.51l17.92-.35.07,0C580.73,300.16,582.88,306.36,582.88,306.36Z" />
  <path
     id="path101"
     opacity="0.1"
     transform="translate(-63 -80.5)"
     d="M618.55,320.75a19,19,0,0,1-3.86,2.23l-4.34-34.7,4-10.08,1-.77C624.38,280,619.72,313.24,618.55,320.75Z" />
  <path
     id="path103"
     opacity="0.1"
     transform="translate(-63 -80.5)"
     d="M521.44,261.54v9.4l-15.9,41.2-4.34-4.34a7.3,7.3,0,0,1-.66-.82C502.42,285.5,521.44,261.54,521.44,261.54Z" />
  <path
     id="path105"
     opacity="0.1"
     transform="translate(-63 -80.5)"
     d="M610.11,439.06c-10.11,2.53-62.89,14.93-78.55,3.19-6.18-4.63-13.46-6.33-20.27-6.6a45.58,45.58,0,0,1,2.2-6.41l77.67,3.61,4.58.21,11,.51C607.94,435.39,609.06,437.22,610.11,439.06Z" />
  <path
     id="path107"
     fill="#f8bdc5"
     transform="translate(-63 -80.5)"
     d="M474.1,90.59s10.84,18.07,18.07,0" />
  <path
     id="path109"
     fill="#f8bdc5"
     transform="translate(-63 -80.5)"
     d="M697.09,127.81s-4.34,21.69,13,11.57" />
  <g
     id="g115"
     opacity="0.1">
    <path
       id="path111"
       transform="translate(-63 -80.5)"
       d="M562.89,529.64c-.35-4.4-.61-7.15-.61-7.15-8,2.17-7.23,107.7-7.23,107.7v68.67c-5.08,4.44-10,6.28-14.35,6.67,5.22.46,11.44-1,18-6.67V630.19S558.14,553.72,562.89,529.64Z" />
    <path
       id="path113"
       transform="translate(-63 -80.5)"
       d="M615.83,451.72c-.61-1.54-1.26-3.09-2-4.63-1.22-2.68-2.59-5.37-4.11-8-1-1.84-2.18-3.67-3.38-5.49l-11-.51-4.58-.21-77.67-3.61-.07.16,74.13,3.45,4.58.21,11,.51c1.2,1.81,2.33,3.65,3.38,5.49,1.52,2.67,2.89,5.36,4.11,8,.7,1.54,1.36,3.09,2,4.63,14.78,37.3,3.56,73.65,3.56,73.65l-4.26,29.86a215.92,215.92,0,0,1-7.86,33.43c-3.06,9.85-.89,22-.89,22s2.89,46.26-2.17,57.83-4.34,28.19-4.34,28.19a21,21,0,0,1-9.06,2.5,23,23,0,0,0,12.67-2.5s-.72-16.63,4.34-28.19,2.17-57.83,2.17-57.83-2.17-12.16.89-22a215.92,215.92,0,0,0,7.86-33.43l4.26-29.86S630.61,489,615.83,451.72Z" />
  </g>
  <path
     id="path117"
     fill="#eb6475"
     transform="translate(-63 -80.5)"
     d="M581.29,290.82c10,4.71,33.4-13.38,33.4-13.38,10.12,2.89,2.89,44.82,2.89,44.82l-.39,1.74c-2.2,9.89-3.53,19.94-4.76,30-.93,7.59-7.86,14.53-7.86,14.53-12.29,23.13,7.23,68.67,7.23,68.67s-62.89,16.63-80.23,3.61-43.37-2.89-43.37-2.89c12.29-10.84,13-78.07,13-78.07v-52c1.45-21.69,21-46.26,21-46.26,8,22.41,30.23,23.89,30.23,23.89,4.93,8,11,5.75,11,5.75Z" />
  <path
     id="path119"
     opacity="0.1"
     transform="translate(-63 -80.5)"
     d="M568.29,202.56a17.73,17.73,0,0,0-7.53,0c-7.86,2.17-10.33,12.08-16.4,17.52-2.18,2-4.87,3.34-6.85,5.51-3.52,3.86-4.23,9.58-3.48,14.75s2.75,10.07,4,15.14A52.39,52.39,0,0,1,539.42,271a9.13,9.13,0,0,1-1.34,4.91c-1.45,2-4.12,2.63-6,4.23-5.74,4.94-1,15.19-5.21,21.5-1.81,2.73-5.2,4.53-5.89,7.73-.49,2.27.55,4.56,1.57,6.65,2.68,5.5,5.46,11.15,10,15.25s10.15,6.16,15.73,8.25c1.69.63,3.81,1.18,5.1-.07,1.59-1.56.39-4.2-.71-6.13-1.74-3-3.1-6.62-2.08-10s4.29-5.62,6.49-8.44c5.67-7.3,3.81-17.78,1-26.58-1.19-3.71-2.53-7.66-1.52-11.43.43-1.62,1.28-3.09,1.82-4.68,2.4-7.08-1.63-14.85-.45-22.23a31.93,31.93,0,0,1,3-8.27l6.35-13.65a13.49,13.49,0,0,1,2.81-4.42,10,10,0,0,1,7-2.18,19,19,0,0,1,13.63,6.21c6.8,7.56,6.37,19,5.55,29.08l-.59,7.28c-.43,5.24-1,10.83-4.3,14.91-2.57,3.16-6.72,5.31-7.78,9.25-.92,3.39.81,7.07-.1,10.46-1.36,5.07-7.62,6.9-10.93,11a11.25,11.25,0,0,0-.82,12.65c1.26,2,3.27,4,3,6.35-.23,1.89-1.93,3.42-1.92,5.32a4.23,4.23,0,0,0,3.07,3.67,12.4,12.4,0,0,0,5.07.24l17.93-1.62a6.31,6.31,0,0,0,3.19-.88c1.25-.9,1.66-2.56,1.83-4.09.72-6.38-1-13.35,2.19-18.93,1-1.79,2.47-3.28,3.58-5,6.12-9.6-.05-22.62,3.28-33.51,1.58-5.17,5.26-9.61,6.24-14.92,1.3-7.08-2.39-14-3.82-21-1.47-7.23-.68-15.19-4.54-21.48-2.95-4.8-8.23-7.79-13.69-9.16-5-1.26-10-.81-15-1.35C577.38,205.37,572.94,203.31,568.29,202.56Z" />
  <path
     id="path121"
     fill="#774e55"
     transform="translate(-63 -80.5)"
     d="M568.29,201.11a17.73,17.73,0,0,0-7.53,0c-7.86,2.17-10.33,12.08-16.4,17.52-2.18,2-4.87,3.34-6.85,5.51-3.52,3.86-4.23,9.58-3.48,14.75s2.75,10.07,4,15.14a52.39,52.39,0,0,1,1.39,15.52,9.13,9.13,0,0,1-1.34,4.91c-1.45,2-4.12,2.63-6,4.23-5.74,4.94-1,15.19-5.21,21.5-1.81,2.73-5.2,4.53-5.89,7.73-.49,2.27.55,4.56,1.57,6.65,2.68,5.5,5.46,11.15,10,15.25s10.15,6.16,15.73,8.25c1.69.63,3.81,1.18,5.1-.07,1.59-1.56.39-4.2-.71-6.13-1.74-3-3.1-6.62-2.08-10s4.29-5.62,6.49-8.44c5.67-7.3,3.81-17.78,1-26.58-1.19-3.71-2.53-7.66-1.52-11.43.43-1.62,1.28-3.09,1.82-4.68,2.4-7.08-1.63-14.85-.45-22.23a31.93,31.93,0,0,1,3-8.27l6.35-13.65a13.49,13.49,0,0,1,2.81-4.42,10,10,0,0,1,7-2.18,19,19,0,0,1,13.63,6.21c6.8,7.56,6.37,19,5.55,29.08l-.59,7.28c-.43,5.24-1,10.83-4.3,14.91-2.57,3.16-6.72,5.31-7.78,9.25-.92,3.39.81,7.07-.1,10.46-1.36,5.07-7.62,6.9-10.93,11a11.25,11.25,0,0,0-.82,12.65c1.26,2,3.27,4,3,6.35-.23,1.89-1.93,3.42-1.92,5.32a4.23,4.23,0,0,0,3.07,3.67,12.4,12.4,0,0,0,5.07.24l17.93-1.62a6.31,6.31,0,0,0,3.19-.88c1.25-.9,1.66-2.56,1.83-4.09.72-6.38-1-13.35,2.19-18.93,1-1.79,2.47-3.28,3.58-5,6.12-9.6-.05-22.62,3.28-33.51,1.58-5.17,5.26-9.61,6.24-14.92,1.3-7.08-2.39-14-3.82-21-1.47-7.23-.68-15.19-4.54-21.48-2.95-4.8-8.23-7.79-13.69-9.16-5-1.26-10-.81-15-1.35C577.38,203.93,572.94,201.87,568.29,201.11Z" />
  <path
     id="path123"
     opacity="0.1"
     transform="translate(-63 -80.5)"
     d="M529.75,366.71s14.46,4.34,35.42-5.06H576s.72,10.12,28.91,5.78" />
  <ellipse
     id="ellipse125"
     opacity="0.1"
     fill="#6c63ff"
     ry="49"
     rx="537"
     cy="690"
     cx="537" />
  <rect
     id="rect127"
     opacity="0.1"
     fill="#6c63ff"
     ry="5.17"
     rx="5.17"
     height="30"
     width="80"
     y="258"
     x="252" />
  <rect
     id="rect129"
     opacity="0.1"
     fill="#6c63ff"
     ry="5.17"
     rx="5.17"
     height="30"
     width="80"
     y="291"
     x="288" />
  <rect
     id="rect131"
     opacity="0.1"
     fill="#6c63ff"
     ry="5.17"
     rx="5.17"
     height="30"
     width="80"
     y="260"
     x="603" />
  <rect
     id="rect133"
     opacity="0.1"
     fill="#6c63ff"
     ry="5.17"
     rx="5.17"
     height="30"
     width="80"
     y="293"
     x="639" />
  <rect
     id="rect135"
     opacity="0.1"
     fill="#6c63ff"
     ry="5.17"
     rx="5.17"
     height="30"
     width="80"
     y="324"
     x="227" />
  <rect
     id="rect137"
     opacity="0.1"
     fill="#6c63ff"
     ry="5.17"
     rx="5.17"
     height="30"
     width="80"
     y="441"
     x="307" />
  <rect
     id="rect139"
     opacity="0.1"
     fill="#6c63ff"
     ry="5.17"
     rx="5.17"
     height="30"
     width="80"
     y="474"
     x="343" />
  <rect
     id="rect141"
     opacity="0.1"
     fill="#6c63ff"
     ry="5.17"
     rx="5.17"
     height="30"
     width="80"
     y="507"
     x="282" />
  <rect
     id="rect143"
     opacity="0.1"
     fill="#6c63ff"
     ry="5.17"
     rx="5.17"
     height="30"
     width="80"
     y="525"
     x="629" />
  <rect
     id="rect145"
     opacity="0.1"
     fill="#6c63ff"
     ry="5.17"
     rx="5.17"
     height="30"
     width="80"
     y="558"
     x="568" />
  <g
     id="g163"
     opacity="0.1">
    <path
       id="path147"
       stroke-width="2"
       stroke-miterlimit="10"
       stroke="#535461"
       fill="none"
       transform="translate(-63 -80.5)"
       d="M1008.26,743.89s-14.48-73.36,15.34-123.64a113.3,113.3,0,0,0,15.63-69.94,190.55,190.55,0,0,0-7-34.14" />
    <path
       id="path149"
       fill="#6c63ff"
       transform="translate(-63 -80.5)"
       d="M1050.85,484.37c-.8,8.75-19,32.68-19,32.68s-13.52-26.84-12.71-35.6a15.92,15.92,0,0,1,31.7,2.91Z" />
    <path
       id="path151"
       fill="#6c63ff"
       transform="translate(-63 -80.5)"
       d="M1072.6,535.27c-5.43,6.91-33.7,17.12-33.7,17.12s3.24-29.88,8.67-36.79a15.92,15.92,0,1,1,25,19.67Z" />
    <path
       id="path153"
       fill="#6c63ff"
       transform="translate(-63 -80.5)"
       d="M1063.84,618c-8.18,3.22-37.73-2.24-37.73-2.24s17.88-24.16,26.06-27.38A15.92,15.92,0,0,1,1063.84,618Z" />
    <path
       id="path155"
       fill="#6c63ff"
       transform="translate(-63 -80.5)"
       d="M1043.11,679.15c-7.52,4.56-37.57,4.17-37.57,4.17s13.54-26.83,21.06-31.39a15.92,15.92,0,1,1,16.51,27.22Z" />
    <path
       id="path157"
       fill="#6c63ff"
       transform="translate(-63 -80.5)"
       d="M1005.46,551c5.72,6.68,34.39,15.68,34.39,15.68s-4.5-29.72-10.21-36.39A15.92,15.92,0,1,0,1005.46,551Z" />
    <path
       id="path159"
       fill="#6c63ff"
       transform="translate(-63 -80.5)"
       d="M982.12,622.82c7.45,4.66,37.51,4.67,37.51,4.67s-13.18-27-20.64-31.67a15.92,15.92,0,1,0-16.87,27Z" />
    <path
       id="path161"
       fill="#6c63ff"
       transform="translate(-63 -80.5)"
       d="M969,695.71c6.56,5.85,36.18,10.95,36.18,10.95s-8.43-28.85-15-34.7A15.92,15.92,0,1,0,969,695.71Z" />
  </g>
  <g
     id="g181"
     opacity="0.1">
    <path
       id="path165"
       stroke-width="2"
       stroke-miterlimit="10"
       stroke="#535461"
       fill="none"
       transform="translate(-63 -80.5)"
       d="M882.63,727.79s-7.77-39.39,8.23-66.39a60.84,60.84,0,0,0,8.39-37.56,102.32,102.32,0,0,0-3.74-18.33" />
    <path
       id="path167"
       fill="#6c63ff"
       transform="translate(-63 -80.5)"
       d="M905.5,588.43c-.43,4.7-10.2,17.55-10.2,17.55s-7.26-14.41-6.83-19.11a8.55,8.55,0,0,1,17,1.56Z" />
    <path
       id="path169"
       fill="#6c63ff"
       transform="translate(-63 -80.5)"
       d="M917.17,615.76c-2.92,3.71-18.1,9.19-18.1,9.19s1.74-16,4.66-19.75a8.55,8.55,0,0,1,13.44,10.56Z" />
    <path
       id="path171"
       fill="#6c63ff"
       transform="translate(-63 -80.5)"
       d="M912.47,660.2c-4.39,1.73-20.26-1.2-20.26-1.2s9.6-13,14-14.7a8.55,8.55,0,0,1,6.27,15.9Z" />
    <path
       id="path173"
       fill="#6c63ff"
       transform="translate(-63 -80.5)"
       d="M901.34,693c-4,2.45-20.17,2.24-20.17,2.24s7.27-14.41,11.31-16.86A8.55,8.55,0,1,1,901.34,693Z" />
    <path
       id="path175"
       fill="#6c63ff"
       transform="translate(-63 -80.5)"
       d="M881.12,624.22c3.07,3.59,18.47,8.42,18.47,8.42s-2.41-16-5.48-19.54a8.55,8.55,0,0,0-13,11.12Z" />
    <path
       id="path177"
       fill="#6c63ff"
       transform="translate(-63 -80.5)"
       d="M868.59,662.77c4,2.5,20.14,2.51,20.14,2.51s-7.08-14.5-11.08-17a8.55,8.55,0,0,0-9.06,14.5Z" />
    <path
       id="path179"
       fill="#6c63ff"
       transform="translate(-63 -80.5)"
       d="M861.56,701.91c3.52,3.14,19.43,5.88,19.43,5.88s-4.52-15.49-8-18.63a8.55,8.55,0,0,0-11.38,12.76Z" />
  </g>
  <g
     id="g199"
     opacity="0.1">
    <path
       id="path183"
       stroke-width="2"
       stroke-miterlimit="10"
       stroke="#535461"
       fill="none"
       transform="translate(-63 -80.5)"
       d="M249.63,733.79s-7.77-39.39,8.23-66.39a60.84,60.84,0,0,0,8.39-37.56,102.32,102.32,0,0,0-3.74-18.33" />
    <path
       id="path185"
       fill="#6c63ff"
       transform="translate(-63 -80.5)"
       d="M272.5,594.43c-.43,4.7-10.2,17.55-10.2,17.55s-7.26-14.41-6.83-19.11a8.55,8.55,0,0,1,17,1.56Z" />
    <path
       id="path187"
       fill="#6c63ff"
       transform="translate(-63 -80.5)"
       d="M284.17,621.76c-2.92,3.71-18.1,9.19-18.1,9.19s1.74-16,4.66-19.75a8.55,8.55,0,0,1,13.44,10.56Z" />
    <path
       id="path189"
       fill="#6c63ff"
       transform="translate(-63 -80.5)"
       d="M279.47,666.2c-4.39,1.73-20.26-1.2-20.26-1.2s9.6-13,14-14.7a8.55,8.55,0,0,1,6.27,15.9Z" />
    <path
       id="path191"
       fill="#6c63ff"
       transform="translate(-63 -80.5)"
       d="M268.34,699c-4,2.45-20.17,2.24-20.17,2.24s7.27-14.41,11.31-16.86A8.55,8.55,0,1,1,268.34,699Z" />
    <path
       id="path193"
       fill="#6c63ff"
       transform="translate(-63 -80.5)"
       d="M248.12,630.22c3.07,3.59,18.47,8.42,18.47,8.42s-2.41-16-5.48-19.54a8.55,8.55,0,0,0-13,11.12Z" />
    <path
       id="path195"
       fill="#6c63ff"
       transform="translate(-63 -80.5)"
       d="M235.59,668.77c4,2.5,20.14,2.51,20.14,2.51s-7.08-14.5-11.08-17a8.55,8.55,0,0,0-9.06,14.5Z" />
    <path
       id="path197"
       fill="#6c63ff"
       transform="translate(-63 -80.5)"
       d="M228.56,707.91c3.52,3.14,19.43,5.88,19.43,5.88s-4.52-15.49-8-18.63a8.55,8.55,0,0,0-11.38,12.76Z" />
  </g>
  <path
     id="path1029"
     d="m 398.43374,149.28505 -17.03192,-1.82523 0.34484,-3.16877 c 0.18966,-1.74282 1.98588,-27.20852 3.99161,-56.590448 2.00572,-29.381927 3.7053,-53.47724 3.77684,-53.545139 0.35759,-0.339393 15.7724,2.281969 16.66576,2.834091 0.67916,0.419748 0.84802,2.01347 0.49005,4.625184 -0.53355,3.892648 -0.49527,3.971987 1.65583,3.432096 1.78992,-0.449243 2.28424,-0.175536 2.64145,1.462598 0.73819,3.385288 8.39841,70.392838 10.07808,88.157738 l 1.57845,16.69428 -3.57954,-0.12558 c -1.96874,-0.0691 -11.24389,-0.94694 -20.61145,-1.95082 z"
     style="fill:#162d50;fill-opacity:1;stroke:#c2f0b3;stroke-width:0.958501;stroke-linecap:round;stroke-linejoin:round;stroke-dasharray:0.479251, 0.479251;paint-order:stroke fill markers" />
  <path
     id="path1031"
     d="m 446.81426,141.01146 c -0.34712,-0.34713 -0.63113,-1.51674 -0.63113,-2.59915 0,-1.0824 -1.2357,-5.92374 -2.74601,-10.75853 -2.3898,-7.65023 -2.67901,-9.6398 -2.22949,-15.33757 0.5918,-7.50115 -0.99359,-19.057867 -7.00798,-51.0848 -2.14007,-11.39598 -3.76584,-20.845966 -3.61283,-20.999968 0.15301,-0.154001 1.75102,-0.0037 3.55111,0.333998 3.20282,0.600853 3.26674,0.692238 2.98466,4.267483 -0.229,2.90251 0.0303,3.716262 1.26158,3.958905 1.34625,0.265305 1.47928,-0.209249 1.01277,-3.612829 l -0.53706,-3.918253 9.44898,1.36337 9.44897,1.36337 -0.0577,3.158968 c -0.0318,1.737432 -1.53423,23.592763 -3.33886,48.567401 -3.1642,43.790075 -3.34591,45.417705 -5.0985,45.668575 -0.99955,0.14309 -2.10137,-0.0239 -2.4485,-0.37097 z"
     style="fill:#162d50;fill-opacity:1;stroke:#c2f0b3;stroke-width:0.958501;stroke-linecap:round;stroke-linejoin:round;stroke-dasharray:0.479251, 0.479251;paint-order:stroke fill markers" />
  <path
     id="path1033"
     d="m 618.02289,198.7843 c -11.01822,-2.70284 -20.0989,-4.96296 -20.17929,-5.02247 -0.0804,-0.0595 1.14056,-11.12644 2.71322,-24.59316 l 2.85939,-24.48494 13.94442,-29.38192 13.94443,-29.38193 5.08059,0.185263 c 2.79432,0.101894 5.37032,0.654054 5.72443,1.22702 0.35411,0.572967 1.04403,0.794425 1.53316,0.492129 1.12458,-0.695027 10.88447,1.22241 10.88447,2.138373 0,0.374377 -3.00497,25.840135 -6.67771,56.590565 -3.67274,30.75044 -6.67771,56.23156 -6.67771,56.62471 0,1.16522 -2.159,0.75545 -23.1494,-4.39364 z"
     style="fill:#162d50;fill-opacity:1;stroke:#c2f0b3;stroke-width:0.958501;stroke-linecap:round;stroke-linejoin:round;stroke-dasharray:0.479251, 0.479251;paint-order:stroke fill markers" />
  <path
     id="path1035"
     d="m 690.96637,193.8762 c -0.0364,-0.12242 -0.23125,-1.10466 -0.43301,-2.18274 -0.20177,-1.07809 -2.79942,-13.89929 -5.77255,-28.49157 -2.97314,-14.59227 -7.79378,-38.35096 -10.71254,-52.79707 -2.91875,-14.446115 -5.51235,-26.92085 -5.76355,-27.721633 -0.37523,-1.196132 0.62074,-1.615716 5.58078,-2.351091 3.32063,-0.492317 6.27919,-0.638456 6.57457,-0.324753 0.63344,0.672737 35.52258,102.092977 35.52258,103.261607 0,1.0096 -24.7298,11.50378 -24.99628,10.60725 z"
     style="fill:#241c1c;fill-opacity:1;stroke:#c2f0b3;stroke-width:0.958501;stroke-linecap:round;stroke-linejoin:round;stroke-dasharray:0.479251, 0.47925099999999998;paint-order:stroke fill markers" />
  <path
     id="path1037"
     d="m 642.06265,203.84634 c 0,-2.13891 13.37093,-113.341771 13.66326,-113.6341 0.20578,-0.205779 2.96056,0.07626 6.12173,0.626753 l 5.74758,1.000899 0.588,37.996618 c 0.59892,38.70167 0.76925,72.21747 0.36768,72.34776 -1.47367,0.47818 -26.48825,2.04777 -26.48825,1.66207 z"
     style="fill:#241c1c;fill-opacity:1;stroke:#c2f0b3;stroke-width:0.958501;stroke-linecap:round;stroke-linejoin:round;stroke-dasharray:0.479251, 0.479251;paint-order:stroke fill markers" />
  <path
     id="path1047"
     d="m 669.44392,187.94783 c -0.0749,-4.68274 -0.18737,-14.5741 -0.24988,-21.98079 -0.0625,-7.4067 -0.16274,-16.62194 -0.22274,-20.47832 -0.06,-3.85638 -0.16051,-11.0683 -0.22335,-16.0265 -0.0628,-4.9582 -0.1626,-11.71939 -0.22168,-15.02485 -0.0591,-3.30547 -0.16808,-9.81624 -0.24222,-14.468377 -0.0741,-4.652139 -0.20018,-8.518983 -0.2801,-8.592988 -0.0799,-0.074 -3.20036,-0.64845 -6.93431,-1.276544 -3.73395,-0.628095 -7.6905,-1.39542 -8.79232,-1.705168 -2.36953,-0.666131 -5.5845,-1.222098 -7.07423,-1.223351 -1.33171,-0.0011 -1.44763,-0.254883 -0.8868,-1.941218 l 0.42811,-1.287237 3.54387,-0.479211 c 5.93568,-0.802636 6.77143,-0.856609 6.77143,-0.437302 0,0.533905 0.90636,0.458243 1.04909,-0.08758 0.14293,-0.546564 10e-4,-0.516504 5.73991,-1.219922 2.57092,-0.315144 4.94986,-0.62774 5.28653,-0.694659 0.59213,-0.117696 0.61215,-0.0902 0.61318,0.842026 6.7e-4,0.530032 0.40442,2.866843 0.89741,5.192912 1.06981,5.047657 2.25954,10.797707 2.99361,14.468379 0.2938,1.46909 1.24255,6.1268 2.10835,10.35045 0.8658,4.22365 2.06936,10.13342 2.67457,13.13283 0.60521,2.9994 1.75128,8.65876 2.54681,12.57635 7.86357,38.72402 10.84013,53.43271 11.05858,54.64594 0.12124,0.67333 0.32977,1.50291 0.46339,1.8435 0.13362,0.3406 0.19514,0.66707 0.13672,0.7255 -0.10228,0.10227 -19.26514,1.65573 -20.46162,1.65874 l -0.58609,0.002 -0.13622,-8.51408 z"
     style="fill:#241c1c;fill-opacity:1;stroke:#c2f0b3;stroke-width:0.239625;stroke-linecap:round;stroke-linejoin:round;stroke-dasharray:0.119813, 0.119813;paint-order:stroke fill markers" />
  <path
     id="path1049"
     d="m 641.53282,86.370343 c -0.40036,-0.175015 -1.25177,-0.393253 -1.89202,-0.484974 -0.97459,-0.139619 -1.17566,-0.247915 -1.23521,-0.665291 -0.0391,-0.274189 0.011,-0.501699 0.11129,-0.505578 0.10034,-0.0039 1.22994,-0.147173 2.51024,-0.318432 1.28029,-0.17126 2.39598,-0.269248 2.4793,-0.217753 0.23227,0.143551 -0.71806,2.549056 -0.99888,2.528394 -0.13573,-0.01 -0.57436,-0.161352 -0.97472,-0.336366 z"
     style="fill:#241c1c;fill-opacity:1;stroke:#c2f0b3;stroke-width:0.239625;stroke-linecap:round;stroke-linejoin:round;stroke-dasharray:0.119813, 0.119813;paint-order:stroke fill markers" />
  <path
     id="path1051"
     d="m 448.22038,154.71626 c -0.55135,-0.0715 -1.04715,-0.17459 -1.10176,-0.22915 -0.0546,-0.0546 -0.14398,-2.37754 -0.19859,-5.16218 -0.0546,-2.78463 -0.18331,-5.61894 -0.286,-6.29846 -0.10269,-0.67952 -0.15319,-1.26901 -0.11222,-1.30998 0.041,-0.041 0.34674,0.001 0.67949,0.0935 0.73953,0.20535 1.94925,0.21937 2.45152,0.0284 0.20447,-0.0777 0.54551,-0.32441 0.75787,-0.54816 0.58124,-0.61242 0.93694,-0.54487 0.9372,0.17797 2.5e-4,0.69384 -0.74393,11.38493 -0.87647,12.59162 l -0.0908,0.82632 -0.57891,-0.02 c -0.31839,-0.011 -1.03001,-0.0784 -1.58137,-0.14991 z"
     style="fill:#241c1c;fill-opacity:1;stroke:#c2f0b3;stroke-width:0.169441;stroke-linecap:round;stroke-linejoin:round;stroke-dasharray:0.0847203, 0.0847203;paint-order:stroke fill markers" />
  <path
     id="path1053"
     d="m 410.34624,44.499663 c -0.0535,-0.08657 -0.30557,-0.157395 -0.56017,-0.157395 -0.43598,0 -0.46289,-0.03702 -0.46289,-0.636735 0,-0.625314 -0.27976,-1.050884 -0.97823,-1.4881 -0.19594,-0.122647 -0.28945,-0.645027 -0.42359,-2.366207 -0.0947,-1.214846 -0.17214,-2.494922 -0.17214,-2.844612 v -0.635799 l 1.18423,0.185775 c 0.65133,0.102177 1.20928,0.213593 1.23989,0.247592 0.0306,0.034 0.2444,1.690856 0.47509,3.681905 0.23069,1.991048 0.44522,3.744037 0.47673,3.89553 0.0417,0.200368 -0.0434,0.275441 -0.31218,0.275441 -0.2032,0 -0.41323,-0.07083 -0.46674,-0.157395 z"
     style="fill:#241c1c;fill-opacity:1;stroke:#c2f0b3;stroke-width:0.169441;stroke-linecap:round;stroke-linejoin:round;stroke-dasharray:0.0847203, 0.0847203;paint-order:stroke fill markers" />
  <path
     id="path1055"
     d="m 371.86313,148.0623 c 0,-0.17499 2.90394,-25.64556 6.4532,-56.601276 3.54926,-30.955711 6.4532,-56.310552 6.4532,-56.344091 0,-0.03354 0.92813,-0.06098 2.06252,-0.06098 h 2.06252 l -0.0967,1.219812 c -0.14076,1.776383 -0.54501,7.297957 -0.64817,8.853478 -0.0488,0.735822 -0.15353,2.223206 -0.23274,3.305298 -0.17667,2.41347 -0.24525,3.389926 -0.54725,7.79106 -0.13068,1.904481 -0.30998,4.489697 -0.39845,5.744923 -0.0885,1.255227 -0.2314,3.309233 -0.31764,4.56446 -0.0863,1.255226 -0.19209,2.778024 -0.2352,3.383996 -0.0431,0.605971 -0.18378,2.695392 -0.31258,4.643157 -0.1288,1.947765 -0.26873,3.966357 -0.31096,4.485761 -0.0422,0.519404 -0.11165,1.47558 -0.15426,2.124835 -0.0906,1.379746 -0.36183,5.261626 -0.47846,6.846689 -0.0446,0.605972 -0.18743,2.659978 -0.31743,4.56446 -0.36421,5.33557 -0.69167,10.108488 -0.78291,11.411148 -0.16984,2.42491 -0.56481,8.12549 -0.94331,13.61468 -0.67413,9.7767 -0.87649,12.65976 -1.10474,15.73952 -0.1219,1.64478 -0.26385,3.62796 -0.31545,4.40706 -0.0516,0.77911 -0.2443,3.11643 -0.4282,5.19404 -0.18391,2.07762 -0.34095,4.0608 -0.34897,4.40707 l -0.0146,0.62958 -3.61671,0.18373 c -5.38068,0.27335 -5.42676,0.27243 -5.42676,-0.10841 z"
     style="fill:#241c1c;fill-opacity:1;stroke:#c2f0b3;stroke-width:0.169441;stroke-linecap:round;stroke-linejoin:round;stroke-dasharray:0.0847203, 0.0847203;paint-order:stroke fill markers" />
  <path
     id="path1057"
     d="m 498.471,697.11265 c -3.01542,-3.01541 -2.66558,-6.38126 1.33627,-12.85639 2.04479,-3.30854 3.97454,-10.7183 4.69233,-18.01741 1.54397,-15.70039 3.05696,-18.63029 9.62063,-18.63029 8.63244,0 13.83722,3.38374 15.03631,9.77544 1.02825,5.48104 -0.16812,31.43612 -1.65787,35.96729 -1.59263,4.84407 -24.92198,7.86706 -29.02767,3.76136 z"
     style="fill:#241c1c;fill-opacity:1;stroke:#c2f0b3;stroke-width:1.917;stroke-linecap:round;stroke-linejoin:round;stroke-dasharray:0.958501, 0.958501;paint-order:stroke fill markers" />
  <path
     id="path1059"
     d="m 479.41727,696.24778 c -1.9588,-0.3841 -5.26901,-1.05915 -7.35602,-1.5001 -6.11525,-1.29206 -9.98758,-11.52752 -7.8566,-20.7668 0.97357,-4.2211 1.78972,-13.18384 1.81366,-19.9172 l 0.0435,-12.24247 5.78735,1.40032 c 3.18305,0.77018 8.99265,1.47134 12.91024,1.55814 8.70958,0.19296 10.65408,2.84036 7.99784,10.88886 -1.26069,3.81993 -1.68732,12.78016 -1.12077,23.53881 l 0.91475,17.3711 -4.78627,0.18385 c -2.63245,0.10112 -6.38892,-0.13041 -8.34771,-0.51451 z"
     style="fill:#241c1c;fill-opacity:1;stroke:#c2f0b3;stroke-width:1.917;stroke-linecap:round;stroke-linejoin:round;stroke-dasharray:0.958501, 0.958501;paint-order:stroke fill markers" />
</svg>
